<svg viewBox="0 0 2790 558" fill="none" xmlns="http://www.w3.org/2000/svg"><path d="M194.64 550.24H0L550.8 0v194.65L194.65 550.24zm906.98-275.28a270.08 270.08 0 01-21.46 107.3 273.72 273.72 0 01-146.52 146.52 266.35 266.35 0 01-107.27 21.46 267.28 267.28 0 01-73.57-9.81 280.43 280.43 0 01-65.6-27.6 272.21 272.21 0 01-98.7-98.7 278.96 278.96 0 01-37.7-139.17h137.94c0 19.01 3.37 36.79 10.73 53.34a141.92 141.92 0 0073.56 73.57 130.86 130.86 0 0053.34 11.04A132.7 132.7 0 00880 401.87a141.93 141.93 0 0043.84-29.73 139.56 139.56 0 0029.42-43.84A133.36 133.36 0 00964 274.96h137.63zm368.43-64.06l-36.79-78.47-33.41 78.47h70.5-.3zm-36.79-120.78l86.75 184.84h-20.54l-21.45-46.59h-86.13l-20.23 46.6h-20.23l81.83-184.85zm214.26 120.78l-36.48-78.47-34.02 78.47h70.5zm-36.78-120.78l86.74 184.84h-20.23l-21.46-46.59h-86.43l-19.93 46.6h-20.53l81.84-184.85zm164.9 93.19c6.13 0 11.65-.92 16.55-2.76 4.91-1.84 9.2-4.29 12.26-7.05a31 31 0 007.05-10.73 33.96 33.96 0 000-25.75 31.56 31.56 0 00-7.05-10.73 33.68 33.68 0 00-12.26-7.05 48.97 48.97 0 00-16.55-2.75h-41.07v66.82h41.07zm-60.07-84.3h61.3c8.58 0 16.55 1.23 23.6 3.99a48.75 48.75 0 0132.49 47.2c0 6.14-.92 12.27-3.06 18.4-2.15 6.13-5.52 10.72-9.81 15.32a51.51 51.51 0 01-15.33 11.04 60.65 60.65 0 01-19.92 5.52l50.88 74.8h-22.99l-50.27-74.5h-27.58v74.5h-19.01V99h-.3zm148.04 0h18.7v75.41h93.18v-75.4h19v176.25h-19V191.6h-93.18v83.07h-18.7V99zm168.59 0h19v112.5c0 9.2 1.23 17.17 3.98 23.6 3.07 6.14 6.13 11.35 10.43 15.33a35.16 35.16 0 0014.71 8.28 55.45 55.45 0 0033.1 0 45.22 45.22 0 0014.41-8.28 42.44 42.44 0 0010.42-15.32c3.06-6.44 3.98-14.41 3.98-23.6V99.01h19.31v115.25c0 10.73-1.83 20.23-5.51 28.2a60.35 60.35 0 01-35.56 32.5 72.02 72.02 0 01-47.2 0 59.74 59.74 0 01-35.56-32.5 67.47 67.47 0 01-5.51-28.2V99.01zm175.02 124.46c0 5.51.92 10.42 2.75 15.02a34.36 34.36 0 0018.7 19.92 42.92 42.92 0 0030.04 0 32.25 32.25 0 0012.26-7.05 34.67 34.67 0 0010.73-25.44c.08-4.29-.98-8.52-3.07-12.26a38.73 38.73 0 00-8.27-9.2c-3.37-2.76-7.05-4.9-11.65-7.05a229.82 229.82 0 00-13.79-5.82 681.88 681.88 0 01-18.7-7.67 69.48 69.48 0 01-15.94-9.2c-4.6-3.98-8.58-8.27-11.34-13.48-2.76-5.21-4.29-11.65-4.29-19.62 0-6.13 1.22-12.26 3.68-18.4a44.93 44.93 0 0110.11-14.7c4.29-4.3 9.2-7.36 15.33-9.81 6.13-2.46 12.56-3.38 19.92-3.38 7.36 0 14.1 1.23 20.23 3.68a45.67 45.67 0 0125.75 25.75 50.88 50.88 0 013.68 19.62h-19.31c0-9.5-3.07-17.17-8.59-23-5.51-5.81-12.87-8.57-21.45-8.57s-16.55 2.75-22.07 7.97a27.66 27.66 0 00-8.28 21.15c0 4.6.92 8.58 3.07 11.95 2.14 3.37 5.21 6.13 8.58 8.59a66 66 0 0012.26 6.43l14.41 6.13c6.43 2.15 12.26 4.9 18.39 7.67 5.82 2.45 10.73 5.82 15.32 9.5 4.29 3.99 7.97 8.28 10.73 13.8 2.45 5.2 3.99 12.25 3.99 20.22a51.53 51.53 0 01-34.64 49.05 64.67 64.67 0 01-22.07 3.68 57.83 57.83 0 01-22.07-4.3 55.43 55.43 0 01-17.47-11.33 54.6 54.6 0 01-15.94-39.85h19.01zm-838.63 148.97h19v112.5c0 9.2 1.23 17.48 3.99 23.6 2.76 6.14 6.13 11.66 10.42 15.33a39.63 39.63 0 0014.71 8.59 55.8 55.8 0 0033.11 0 38.68 38.68 0 0024.82-23.91c3.07-6.13 3.99-14.1 3.99-23.6v-112.5h19.31V487.7c0 10.73-1.84 20.23-5.52 28.2a60.93 60.93 0 01-14.71 20.24 57.66 57.66 0 01-20.84 12.26 72.04 72.04 0 01-47.21 0 60.12 60.12 0 01-35.55-32.5 67.32 67.32 0 01-5.52-28.2V372.44zm169.2-6.13l123.22 141.01V372.44h19v182.7l-123.22-141V548.7h-19V366.31zm183.91 6.13h18.69V548.7h-18.69V372.44zm41.07 0h20.54l58.23 138.87 54.87-138.87h20.23l-74.18 185.15-79.69-185.15zm175.02 0h105.75v17.78h-86.75v57.94h79.08v17.47h-79.08v65.6h86.75v17.47h-105.75V372.44zm196.17 84.3c6.44 0 12.26-.92 16.86-2.45 4.9-1.84 9.19-4.3 12.26-7.36a32.25 32.25 0 009.5-23.3c0-4.6-.61-8.88-2.45-12.87a31.08 31.08 0 00-7.05-10.73 34.42 34.42 0 00-12.26-7.35 48.16 48.16 0 00-16.56-2.46h-41.07v66.52h41.07-.3zm-59.16-84.3h61.3a70 70 0 0123.3 3.99 47.87 47.87 0 0128.81 27.28 53.59 53.59 0 013.68 19.93c0 6.43-.92 12.56-3.07 18.39a45.98 45.98 0 01-9.8 15.33 50.54 50.54 0 01-15.33 11.03 60.03 60.03 0 01-19.92 5.82l50.88 74.5h-22.99l-50.27-74.19h-27.89v74.18h-19.31V372.44h.61zm158.16 124.76a36.86 36.86 0 0010.12 26.98 35.18 35.18 0 0026.36 10.73c5.52 0 10.42-.92 15.32-2.76a33.75 33.75 0 0022.38-32.5c.1-4.28-.96-8.52-3.07-12.25a31.47 31.47 0 00-7.97-9.2 65.25 65.25 0 00-11.95-7.05 238.56 238.56 0 00-13.49-6.13l-19-7.36c-6.13-2.45-11.34-6.13-15.94-9.5-4.6-3.68-8.27-8.28-11.34-13.18-3.06-4.9-4.29-11.65-4.29-19.62a46.6 46.6 0 0113.79-33.41 52.43 52.43 0 0115.33-9.81 54.24 54.24 0 0120.23-3.37c7.35 0 14.1 1.22 20.23 3.67a45.33 45.33 0 0125.75 25.75 58.73 58.73 0 013.37 19.62h-19.31c0-9.5-3.07-17.16-8.28-22.99a29.04 29.04 0 00-21.76-8.27c-9.2 0-16.25 2.45-21.76 7.66a27.55 27.55 0 00-8.59 21.46c0 4.29 1.23 8.27 3.07 11.64 2.45 3.07 5.21 6.13 8.89 8.59a50.85 50.85 0 0012.26 6.44 764.27 764.27 0 0032.49 13.79 62.67 62.67 0 0115.32 9.8 38.05 38.05 0 0110.73 13.5c3.07 5.51 4.29 12.26 4.29 20.23a51.18 51.18 0 01-16.55 38.31 53.6 53.6 0 01-18.39 10.73 64.37 64.37 0 01-21.76 3.68 55.77 55.77 0 01-39.54-15.33 54.57 54.57 0 01-11.65-17.77c-2.9-7-4.36-14.5-4.29-22.07h19zm125.67-124.76h19.01V548.7h-19.01V372.44zm92.88 17.78h-51.5v-17.78h122v17.78h-52.42V548.7h-18.69l.61-158.48zm91.95-17.78h105.75v17.78h-86.74v57.94h79.38v17.47h-79.38v65.6h86.74v17.47h-105.44l-.31-176.26zm175.94 17.78h-51.49v-17.78h121.99v17.78h-51.49V548.7h-19.01V390.22z" /></svg>