<svg class="" viewBox="0 0 138 36" fill="currentColor" xmlns="http://www.w3.org/2000/svg"><path fill-rule="evenodd" clip-rule="evenodd" d="M29.95 11.05v1.74H22.1V7.56H7.87v20.88h14.22v-5.22h7.86v1.73C29.95 34.6 24.06 36 15.38 36h-.8C5.88 36 0 34.6 0 24.95v-13.9C0 1.4 5.89 0 14.57 0h.81c8.68 0 14.57 1.4 14.57 11.05zM47.3 0h.4c8.69 0 14.58 1.4 14.58 11.06v23.99H54.4V23.22H40.2v11.83h-7.87v-24C32.32 1.4 38.22 0 46.9 0h.4zm7.11 7.56H40.2v8.63h14.22V7.56zM112.35 0h-.8c-8.7 0-14.58 1.4-14.58 11.06v23.99h7.86V23.22h14.22v11.83h7.87v-24C126.92 1.4 121.03 0 112.35 0zm-7.52 7.56h14.22v8.63h-14.22V7.56zm-10.23 3.5v1.73h-7.87V7.56H72.5v5.63c.07.01 8.34 1.05 14.22 1.9 4.58.67 7.85 3.91 7.85 8.39v1.46h.02C94.6 34.62 88.7 36 80.02 36h-.8c-8.69 0-14.58-1.4-14.58-11.05v-1.73h7.87v5.22h14.22V22.83S77 21.64 72.5 20.95c-5.05-.78-7.85-4.01-7.85-8.52v-1.37C64.64 1.38 70.52 0 79.21 0h.12a42.2 42.2 0 01.43 0h.26c8.68 0 14.56 1.4 14.56 11.05zm35.99 20.62h1.32v3.35h.62v-3.35h1.26v-.6h-3.2v.6zm5.35 1.92l1-2.53h.74v3.96h-.56v-2.96l-.93 2.41h-.5l-.92-2.4v2.95h-.56v-3.96h.76l.97 2.53z"/></svg>