<svg viewBox="0 0 58 73" fill="none" xmlns="http://www.w3.org/2000/svg"><path d="M17.13 65.21a5.93 5.93 0 01-1.49-.24.16.16 0 01-.04-.09v-.52c0-.18 0-.39-.05-.53s0-.12.07-.12.09 0 .11.11a1.36 1.36 0 001.56 1c.36 0 .84-.22.84-.64 0-1-2.47-.74-2.47-2.17 0-.68.37-1.17 1.38-1.17a12.23 12.23 0 011.42.15c.02.02.03.04.03.07v1s0 .12-.06.12-.06 0-.08-.09c-.25-.75-.62-.87-1.39-.87-.44 0-.77.19-.77.59 0 .85 2.49.7 2.49 2.15-.02 1.04-.68 1.25-1.55 1.25zM22.46 65.21a5.93 5.93 0 01-1.49-.24.16.16 0 01-.04-.09v-.52c0-.18 0-.39-.05-.53s0-.12.07-.12.09 0 .11.11a1.36 1.36 0 001.56 1c.36 0 .84-.22.84-.64 0-1-2.47-.74-2.47-2.17 0-.68.37-1.17 1.38-1.17a12.23 12.23 0 011.42.15c.02.02.03.04.03.07v1s0 .12-.06.12-.06 0-.08-.09c-.25-.75-.62-.87-1.39-.87-.44 0-.77.19-.77.59 0 .85 2.49.7 2.49 2.15-.01 1.04-.71 1.25-1.55 1.25zM29.47 63h-2.28a.2.2 0 00-.2.12.2.2 0 00-.01.08c.05 1.16.7 1.54 1.26 1.54a1.41 1.41 0 001.05-.59h.08l.15.13a.07.07 0 010 .08 1.69 1.69 0 01-1.5.87c-.9 0-1.84-.62-1.84-2.2a2 2 0 011.87-2.16 1.65 1.65 0 011.63 1.86c.02.12-.09.27-.21.27zm-1.4-1.82c-.57 0-1 .51-1.06 1.29 0 .11 0 .18.15.18h1c.17 0 .35-.02.52-.05a.3.3 0 00.25-.32c0-.74-.42-1.09-.86-1.09v-.01zM36.3 65.11h-1.36c-.09 0-.13 0-.13-.07s.07-.08.13-.14c.06-.06.11-.19.11-.58v-2a.83.83 0 00-.92-.9c-.37 0-1.08.31-1.08.78v2.27a.44.44 0 00.33.44l.21.06c.09 0 .16.06.16.11s-.07.08-.16.08h-1.78c-.09 0-.15 0-.15-.07s.06-.09.15-.12l.21-.06a.43.43 0 00.32-.44v-2.84a.41.41 0 00-.34-.43l-.4-.06c-.09 0-.16-.06-.16-.11s.07-.08.16-.08h1.12a.15.15 0 01.15.11l.16.34s.07.06.1 0a1.55 1.55 0 011.24-.56 1.38 1.38 0 011.4 1.57v2a.44.44 0 00.32.44l.21.06c.09 0 .16.06.16.11s-.07.09-.16.09zM40.84 64.86a.05.05 0 01.01.06l-.01.02c-.24.15-.52.23-.81.23-.8 0-1.22-.25-1.22-.9v-2.85H38a.1.1 0 01-.1-.09v-.28A.09.09 0 0138 61h.57a.32.32 0 00.27-.23l.46-1.11s0-.09.1-.09.09 0 .09.12V61h1.13c.07 0 .1 0 .1.08v.33c0 .06 0 .08-.09.08h-1.14v2.66c0 .45.09.79.62.79.2 0 .4-.05.57-.15a.06.06 0 01.05-.03.06.06 0 01.05.03l.06.07zM44.91 65.11h-2.08c-.08 0-.16 0-.16-.07s.08-.1.16-.12l.31-.06a.42.42 0 00.32-.44v-2.79a.4.4 0 00-.32-.43l-.34-.06c-.08 0-.16 0-.16-.11s.07-.08.16-.08h1.28c.08 0 .14 0 .14.12v3.35a.42.42 0 00.32.44l.41.06c.08 0 .16.06.16.12s-.11.07-.2.07zm-1.25-5.26a.4.4 0 01-.41-.4.56.56 0 01.71-.51.4.4 0 01.27.37.58.58 0 01-.57.54zM50.73 65.11h-1a.2.2 0 01-.17-.11l-.08-.14s0-.07-.09-.07a.19.19 0 00-.13 0c-.37.25-.8.38-1.24.37a1.08 1.08 0 01-1.03-1.67c.12-.18.29-.32.49-.4.37-.16.91-.23 1.38-.37.29-.09.53-.21.53-.5v-.39c0-.48-.55-.64-.91-.64-.75 0-1 .31-1.19 1a.06.06 0 01-.06 0 .06.06 0 01-.06-.06v-1.06a.09.09 0 01.06-.1h.04c.41 0 .82-.12 1.24-.12 1 0 1.6.34 1.6 1.48v2.09a.42.42 0 00.32.44l.29.06c.09 0 .16 0 .16.11s-.06.08-.15.08zm-1.32-2c0-.08 0-.1-.11-.08l-1.3.37a.58.58 0 00-.49.57c0 .52.24.86.78.86s1.12-.31 1.12-.75v-.97zM54.38 65.11H53c-.09 0-.13 0-.13-.07S53 65 53 64.9a.7.7 0 00.12-.5v-5.05a.4.4 0 00-.33-.43l-.33-.06c-.08 0-.16 0-.16-.11s.07-.08.16-.08h1.28c.08 0 .13 0 .13.12v5.65a.44.44 0 00.33.44l.22.06c.08 0 .15.06.15.11s-.1.06-.19.06zM13.07 65a.14.14 0 01-.14.11h-4c-.09 0-.16 0-.16-.07s.07-.1.16-.12a.42.42 0 00.3-.44v-4.62a.43.43 0 00-.32-.45l-.41-.06c-.09 0-.16-.06-.16-.11s.07-.08.16-.08h4.37a.11.11 0 01.11.12l.09 1.36c0 .09 0 .14-.08.14s-.09 0-.12-.11c-.35-.89-.59-1.11-1.39-1.11H10.3a.25.25 0 00-.25.23v4.75a.19.19 0 00.19.17h1.42c1 0 1.22-.48 1.43-1.24a.17.17 0 01.14-.13s.1.06.07.22L13.07 65z" /><path d="M12.76 61.88a1.06 1.06 0 01-1.76.35 1.07 1.07 0 01.78-.66 1.1 1.1 0 01.98.31zM24.42 69.34c0 .06 0 .1-.05.1s-.06 0-.08-.08c-.23-.59-.39-.74-.93-.74h-.78a.17.17 0 00-.17.15V70h1.26a.07.07 0 01.06.07v.28a.06.06 0 01-.06.06h-1.26v1.39a.29.29 0 00.23.29h.2c.06 0 .11 0 .11.08s-.05 0-.11 0h-1.29s0-.06.1-.08a.27.27 0 00.21-.29v-2.98a.28.28 0 00-.22-.3h-.27c-.06 0-.11 0-.11-.07s0 0 .11 0h2.92a.07.07 0 01.05.02.07.07 0 01.02.06l.06.81zM26.77 72.4a1.47 1.47 0 010-2.92A1.32 1.32 0 0128 70.93a1.34 1.34 0 01-1.23 1.47zm0-2.64c-.61 0-.75.59-.75 1.09 0 .5.14 1.31.79 1.31s.74-.66.74-1.13c0-.47-.14-1.27-.8-1.27h.02zM30.71 72.4a1.47 1.47 0 010-2.92A1.32 1.32 0 0132 70.93a1.34 1.34 0 01-1.29 1.47zm0-2.64c-.61 0-.75.59-.75 1.09 0 .5.13 1.31.78 1.31s.75-.66.75-1.13c0-.47-.13-1.27-.79-1.27h.01zM36.19 72.34h-.68a.11.11 0 01-.1-.08l-.09-.18h-.06a1 1 0 01-.71.33c-.6 0-1.13-.41-1.13-1.48a1.31 1.31 0 011.21-1.44 2 2 0 01.65.1h.06v-1.1a.28.28 0 00-.22-.29h-.27c-.06 0-.11 0-.11-.07s0 0 .11 0h.9s.09 0 .09.07v3.77a.28.28 0 00.21.3h.21c.06 0 .11 0 .11.07s-.12 0-.18 0zm-.89-1.93c0-.45-.16-.68-.68-.68s-.74.46-.74 1.2.36 1.14.75 1.14a.8.8 0 00.62-.38.22.22 0 000-.14l.05-1.14zM38.58 72.41a4.38 4.38 0 01-.93-.13s-.08 0-.09-.09v-.35a1.9 1.9 0 000-.35v-.08s.06 0 .07.07a.91.91 0 001 .68c.25 0 .56-.15.56-.43 0-.7-1.65-.5-1.65-1.46 0-.45.25-.78.93-.78a8.05 8.05 0 01.94.1l.02.05v.73l-.06-.06c-.16-.49-.41-.58-.92-.58-.3 0-.52.13-.52.4 0 .57 1.67.47 1.67 1.44.01.67-.46.84-1.02.84z" /><path fill-rule="evenodd" clip-rule="evenodd" d="M44.71 48c-.15.55-.44.74-.94.66a.3.3 0 00-.37.36v.7c.02.44-.04.87-.19 1.28a1 1 0 00-.06.75l.09 1.59-3.5-.34a7.91 7.91 0 011.54-3.41c.22-.31.5-.59.72-.9.17-.23.3-.49.42-.75.4-.88.37-.8 1-.79.45 0 .49.32.49.41 0 .09.22.31.39.34.14.02.28.05.41.1zM19.07 2.69a.34.34 0 00.44-.06c.13-.15.24-.3.34-.48.1-.25.15-.53.13-.8A1.43 1.43 0 0019.42 0h-.11c-.47.5-.74 1.16-.74 1.85a.82.82 0 00.5.84zM2.54 25a.19.19 0 00.2-.15c.06-.23.06-.47 0-.7a1.53 1.53 0 00-1.1-1.31 3.5 3.5 0 00-.64-.05c-.01.38.03.76.12 1.13A1.56 1.56 0 002.54 25zM19.59 15a.86.86 0 00.09-.11 1.93 1.93 0 00-.43-2.37.54.54 0 00-.23-.07l-.06.12a2.3 2.3 0 00-.29 1.49 1.08 1.08 0 00.92.94zM20.88 24.57a2.47 2.47 0 001.36 1.04 1.13 1.13 0 001-.12c.24-.17.26-.26.11-.5a2.67 2.67 0 00-.59-.62 2 2 0 00-1.2-.46.8.8 0 00-.63.23c-.17.18-.18.2-.05.43zM12.54 18.83a1.15 1.15 0 001 .57 1.9 1.9 0 00-1.18-2.69 3 3 0 00-.15 1.15c.02.35.13.68.33.97zM46.76 31.29a1.89 1.89 0 001.88-.24l-.39-.44c-.23-.28-.52-.5-.86-.64a1.71 1.71 0 00-1.55.14 1.44 1.44 0 00.92 1.18zM10 32.34c.03-.3-.01-.59-.14-.85a1.84 1.84 0 00-1.1-.89 1.81 1.81 0 00-1-.1c0 .25.07.47.13.68.07.26.2.5.37.72a1.8 1.8 0 001.54.6.15.15 0 00.2-.16zM48.82 11c.3-.47.44-1.03.4-1.59a1.54 1.54 0 00-1.54.67 2.1 2.1 0 00-.31.89c-.03.26 0 .52.1.76a1.76 1.76 0 001.35-.73zM31.32 19.21a1.78 1.78 0 001.22-2.59 1.78 1.78 0 00-1.22 2.59zM28.94 12.65a2.27 2.27 0 00-.58 2.74.91.91 0 001-.64c.2-.5.2-1.05 0-1.54a.92.92 0 00-.42-.56zM36.56 4.38c-.49.29-.85.75-1 1.3a1.5 1.5 0 00.11 1.15h.17A1.8 1.8 0 0037 5.88c.17-.27.25-.58.22-.9a.86.86 0 00-.45-.72l-.21.12zM15.07 17.1a3.5 3.5 0 00-.24 1.62c.02.35.18.67.43.91.18.2.42.3.68.32a1.94 1.94 0 00-.87-2.85zM32.82 21.4c.13-.03.25-.08.37-.13a2.27 2.27 0 001.13-1.34c0-.1 0-.18-.06-.22a1.06 1.06 0 00-.56-.18 1.9 1.9 0 00-1.5.88 1.13 1.13 0 00-.2.94c.27.08.55.1.82.05zM54.86 28c-.5-.34-1.1-.48-1.7-.4a.91.91 0 00-.91.85.3.3 0 00.23.4 2.63 2.63 0 001.94-.12c.26-.1.48-.3.6-.56a.28.28 0 00-.06-.08.43.43 0 00-.1-.09zM12 15.78a2.1 2.1 0 00-.65-1.72 1.2 1.2 0 00-1.11-.37c-.19 0-.22.08-.2.29.03.52.23 1.01.57 1.41a1.24 1.24 0 001.39.39zM42.56 33.12a.77.77 0 00-.73-.43c-.22 0-.26 0-.3.22-.14.45-.16.93-.06 1.39a1.56 1.56 0 00.67 1c.23.14.28.13.41-.12a2 2 0 00.23-1v-.28c0-.27-.08-.54-.22-.78zM22.24 11.3a.4.4 0 00-.37-.12c-.16.25-.27.54-.3.84a2 2 0 00.08 1.07c.06.16.16.3.3.4a.35.35 0 00.53 0 1 1 0 00.28-.48c.06-.25.06-.52 0-.77a1.73 1.73 0 00-.52-.94zM32.52 12c-.15-.06-.27 0-.33.11a2.55 2.55 0 00-.11 2.06c.07.16.17.31.28.45.1.13.19.13.34.07a1 1 0 00.62-.9c-.03-.5-.16-.98-.38-1.42a1 1 0 00-.42-.37zM37.43 10.12a2 2 0 00-.31.69 2.48 2.48 0 000 1.5c.07.21.15.24.37.18a1 1 0 00.57-.4c.3-.39.42-.88.35-1.36a1.14 1.14 0 00-.58-1 .87.87 0 00-.4.39zM39.82 9.32c-.13.11-.25.25-.33.4-.19.3-.27.65-.24 1 0 .15 0 .18.21.18.16 0 .32-.05.44-.16.26-.2.43-.5.48-.83a.75.75 0 00-.21-.74.63.63 0 00-.35.15zM27 11.88c-.07.16-.11.33-.12.5-.02.35.06.7.24 1 .08.13.14.14.27.07.15-.08.26-.2.33-.35.12-.3.12-.65 0-.95a.75.75 0 00-.52-.57.54.54 0 00-.2.3zM17.28 6.4c-.06.29-.14.57-.17.84-.07.46 0 .94.2 1.36a.9.9 0 00.5.47c.26.1.34.07.48-.17.16-.27.23-.59.22-.9 0-.4-.13-.79-.35-1.12a1 1 0 00-.88-.48zM18.15 21a2 2 0 00-.56-2.82l-.15.16a2 2 0 00-.27 1.66 1.23 1.23 0 00.98 1zM14.8 9.73a1.09 1.09 0 001 .63c.25 0 .31 0 .34-.28.06-.47-.04-.95-.28-1.36a1.79 1.79 0 00-.81-.72.69.69 0 00-.58-.09v.25a3 3 0 00.33 1.57zM9 14.1a1.45 1.45 0 00-.09-1.45 2 2 0 00-1.64-.9A2 2 0 009 14.1zM34.94 14c.2.1.31.1.46-.07a2.09 2.09 0 00.46-1.87 1.25 1.25 0 00-.51-.8c-.21.14-.38.33-.5.56-.3.47-.43 1.04-.35 1.59a.86.86 0 00.44.59zM23.53 37.67c.12-.02.23-.05.34-.1a.35.35 0 00.22-.54 1.27 1.27 0 00-.6-.65 2 2 0 00-1.15-.24 1.3 1.3 0 00-1.33.91c.14.2.34.34.57.42.62.26 1.3.33 1.95.2zM24.61 13.53c.36.3.62.22.84-.13v-.08a2 2 0 00-.36-2 .73.73 0 00-.49-.28l-.23.43c-.15.36-.2.75-.17 1.13a1.15 1.15 0 00.41.93zM25.5 8.4c-.05.18-.1.33-.13.48-.08.44-.05.89.09 1.31a2 2 0 00.61.9.19.19 0 00.26 0 1 1 0 00.4-.46c.09-.25.11-.52.07-.78a2.62 2.62 0 00-.3-.76 1.24 1.24 0 00-1-.69zM40.24 25.06l-.17-.14a2.89 2.89 0 00-2.15-.33c-.3.06-.56.22-.75.45a.43.43 0 00-.13.42c.06.2.2.37.38.48.27.16.59.24.91.23a3.1 3.1 0 001.19-.33 1.35 1.35 0 00.72-.78zM49.12 17.34c-.28.28-.46.65-.48 1.05 0 .08 0 .15.08.17.13.02.27.02.4 0a1.42 1.42 0 001-.61c.22-.31.33-.7.3-1.08a2 2 0 00-1.3.47zM22.08 4.73c-.14.32-.23.65-.27 1a1.1 1.1 0 00.38 1.07c.17.14.41.2.52.1.16-.12.28-.27.37-.45a2.08 2.08 0 00-.15-1.85.78.78 0 00-.56-.41l-.29.54zM8.53 17.33a.15.15 0 00.18-.1 2.18 2.18 0 00-.18-1.85 1.2 1.2 0 00-1-.62v.11c-.16.4-.2.84-.11 1.27a1.37 1.37 0 001.11 1.19zM9.7 33.59a1.2 1.2 0 00-.29.94 1.85 1.85 0 00.7 1.27.9.9 0 00.9.26 2 2 0 00-1.31-2.47zM13.26 13.49a3 3 0 00-.09 1.58 1.07 1.07 0 001.05 1 .25.25 0 00.3-.19c.12-.32.15-.67.08-1a1.82 1.82 0 00-.93-1.28.54.54 0 00-.41-.11zM31.59 15.41a1.7 1.7 0 00-.53-1.61.8.8 0 00-.13.13l-.22.33a1.63 1.63 0 000 1.84.12.12 0 00.16 0 1 1 0 00.72-.69zM31.89 7.9c-.34.36-.58.8-.69 1.28-.08.33-.06.68.06 1 .06.17.11.19.3.16.25-.04.48-.17.65-.36.27-.35.44-.76.5-1.19.02-.3-.05-.62-.21-.88-.21-.26-.37-.27-.61-.01zM53.51 17.4l.06-.33c.06-.27 0-.31-.23-.35h-.23c-.13 0-.26.02-.39.05-.38.04-.73.22-1 .49-.27.3-.44.67-.51 1.06.26.12.54.18.82.17a1.56 1.56 0 001.48-1.09zM33.73 4.07c.24-.5.33-1.05.27-1.59 0-.1-.08-.12-.16-.11a1.71 1.71 0 00-1.44 1.06 1.49 1.49 0 000 1.33 1.44 1.44 0 001.33-.69zM48.92 12.52a1.47 1.47 0 000 1.53c.17-.05.32-.09.47-.15a1.66 1.66 0 001-1.07c.1-.38.13-.77.09-1.16a1.65 1.65 0 00-1.56.85zM15.42 3.41c.28.22.46.21.68-.06a1 1 0 00.2-.35l.15-.72c0-.3-.08-.6-.21-.88a1.3 1.3 0 00-.31-.4c-.2-.19-.35-.16-.51.07v.07c-.3.5-.4 1.07-.32 1.64a.92.92 0 00.32.63zM20.5 18.42a1.9 1.9 0 00-.19-1.42 1.11 1.11 0 00-.93-.64 2.19 2.19 0 00-.19 1.75 1.15 1.15 0 00.73.8c.12.05.24.08.37.11.11-.18.18-.39.21-.6zM40.29 35.71c.23 0 .29-.07.26-.29a2.55 2.55 0 00-.55-1.18 2 2 0 00-.2-.28 1.12 1.12 0 00-.7-.44.85.85 0 00-.56.15.32.32 0 00-.1.33 1.92 1.92 0 001.85 1.71zM3.48 33.48v-.19a1.58 1.58 0 00-1-1.26 3 3 0 00-1.45-.2 1.86 1.86 0 002.45 1.65zM55.8 30.47c.35-.03.7-.14 1-.33a1 1 0 00.48-.69c-.07-.06-.14-.1-.22-.15a2.53 2.53 0 00-1.71-.16c-.18.05-.36.14-.51.25-.39.26-.37.61 0 .86.28.18.62.26.96.22zM21.51 3c.37.24.54.24.78-.12a1.88 1.88 0 00.23-1.36 2.14 2.14 0 00-.25-.71.74.74 0 00-.51-.38h-.07a2.8 2.8 0 00-.53 1.87.83.83 0 00.35.7zM27.11 4.3a.39.39 0 00.44-.08c.14-.13.24-.3.3-.47a2 2 0 000-1.39 1 1 0 00-.69-.77 2.83 2.83 0 00-.55 2.11.83.83 0 00.5.6zM40.89 19a4.8 4.8 0 00-.31-.65 1.23 1.23 0 00-.75 1c-.04.34 0 .69.15 1 .08.2.21.36.38.49l.21-.16a1 1 0 00.46-.85 2 2 0 00-.14-.83zM7.14 32.35a3.42 3.42 0 00-.06 1.86 1 1 0 00.54.68c.36.15.66.11.8-.29.08-.19.12-.4.1-.6-.07-.4-.25-.79-.52-1.1a1.31 1.31 0 00-.86-.55zM24.42 3.92a.32.32 0 00.36-.09c.15-.16.26-.35.32-.56.1-.3.12-.63.07-.94-.03-.3-.13-.59-.31-.83a.52.52 0 00-.5-.26c-.32.39-.51.87-.55 1.37-.07.34-.02.7.15 1 .1.16.27.27.46.31zM37.63 15.81a2 2 0 00.4-1.18c0-.31-.08-.62-.26-.87-.13-.17-.16-.18-.34-.06-.46.3-.78.77-.92 1.3-.11.32-.11.68 0 1 .07.18.11.21.29.21a1 1 0 00.83-.4zM15.91 24c.18.24.41.42.69.53.24-.2.42-.46.51-.76a2.1 2.1 0 00-.05-1.56 1.33 1.33 0 00-.79-.71l-.15.22a2.9 2.9 0 00-.45 1.51c0 .27.09.54.24.77zM12.73 33.11c-.24-.15-.5-.27-.78-.34a2 2 0 00-1.08.02.17.17 0 00-.09.19c0 .24.08.47.23.66a2.14 2.14 0 002.18.68.87.87 0 00-.05-.67 1.4 1.4 0 00-.41-.54zM37.67 3.36a1.31 1.31 0 001.2-.84c.15-.42.2-.88.13-1.32a1 1 0 00-.29-.06 1.5 1.5 0 00-1 .52 1.85 1.85 0 00-.41 1.7h.37zM2.47 20.68a1.59 1.59 0 00.7 1.09c.3.16.65.25 1 .25a3 3 0 00.09-.55 2 2 0 00-.26-.85 1.62 1.62 0 00-1.39-.82c-.19 0-.23 0-.22.21.01.22.04.45.08.67zM9.21 25.64a1.2 1.2 0 001-1 2.06 2.06 0 00-2.85.45 2.13 2.13 0 001.85.55zM19 31.84c-.4-.24-.87-.34-1.34-.28-.37.01-.73.16-1 .42-.17.18-.17.25 0 .43a2.8 2.8 0 001.87.74 2 2 0 001-.23.21.21 0 00.07-.23 1.2 1.2 0 00-.6-.85zM11.12 29.65a2.15 2.15 0 00-1-.14 1.25 1.25 0 00-.84.48s.05.08.08.1c.3.32.67.56 1.07.73.31.15.66.2 1 .15a1 1 0 00.74-.53 1.93 1.93 0 00-1.05-.79zM9.33 38.7l-.25-.16a1.09 1.09 0 00-.84-.17c-.26.05-.5.16-.71.33-.32.29-.63.6-1 .91a1.76 1.76 0 002.8-.91zM24.52 19.73c.18.09.29.08.38-.08a2.12 2.12 0 00.17-1.88 1.37 1.37 0 00-.76-.89l-.08.1a2.69 2.69 0 00-.3 1.94 1.07 1.07 0 00.59.81zM6.1 34.39v-.08a1.68 1.68 0 00-.73-1.38 1.63 1.63 0 00-1.15-.35c-.02.23-.02.46 0 .69.02.26.1.52.21.76a1.49 1.49 0 001.25.71c.32.03.39-.03.42-.35zM4 27.83a1.38 1.38 0 00-.84-1.78A2 2 0 001.9 26a2 2 0 002 2s.1-.12.1-.17zM45.8 23.84c.33-.07.64-.22.9-.43a1.13 1.13 0 00.46-1 2.7 2.7 0 00-2.11.34 1 1 0 00-.44 1c.38.13.8.16 1.19.09zM13.2 9.49c0 .08-.06.14-.08.21-.07.28-.1.56-.12.84-.03.34.01.68.12 1a.87.87 0 00.8.66c.24 0 .27 0 .34-.2.14-.41.16-.86.05-1.28a1.67 1.67 0 00-1.11-1.23zM13.54 6.51c.12-.13.22-.26.31-.41.24-.45.34-.97.27-1.48A.91.91 0 0013.8 4c-.42-.32-.53-.27-.76.11a2.08 2.08 0 00-.21 1.67 1.06 1.06 0 00.71.73zM10.75 18.61a.27.27 0 00.28-.09c.16-.19.25-.42.27-.67.01-.27-.04-.55-.17-.79A1.73 1.73 0 0010 16a2.54 2.54 0 000 2 1 1 0 00.75.61zM25.2 5.36a.76.76 0 00-.56-.31l-.06.06a3.1 3.1 0 00-.3 1.89.86.86 0 00.61.71.27.27 0 00.25 0 .9.9 0 00.34-.48c.1-.28.12-.59.07-.88a2.2 2.2 0 00-.35-.99zM46.71 27.44a1.22 1.22 0 001.36-.72c.14-.31.2-.66.18-1a.93.93 0 00-.13-.53 1.89 1.89 0 00-1.57 2.26l.16-.01zM35.91 35.16a1.05 1.05 0 00.92 1 2 2 0 00.91-.1c.16-.04.3-.12.41-.24A1.63 1.63 0 0035.9 35l.01.16zM20.88 22.3a1.6 1.6 0 00-1.06-1.5 1.2 1.2 0 00-.53-.03v.63c0 .4.11.8.33 1.15.24.37.62.63 1.05.74.17-.3.25-.65.21-.99zM41.39 7.11c-.28.52-.39 1.1-.31 1.69.2.08.43.08.64 0 .28-.08.53-.26.69-.51.17-.28.26-.6.25-.94.03-.35-.04-.7-.21-1-.44.1-.82.38-1.06.76zM40.1 38.11a.35.35 0 00.39.17c.18-.02.36-.08.51-.18.2-.14.38-.32.5-.53.17-.2.3-.44.36-.7a1.4 1.4 0 000-.76.22.22 0 00-.33-.15 3 3 0 00-1.4 1.19.83.83 0 00-.03.96zM16.81 9.67a2.65 2.65 0 000 1.6 1.27 1.27 0 001.08 1c.15 0 .2 0 .21-.14v-.57c0-.21-.02-.43-.05-.64-.03-.2-.09-.39-.16-.57a1.35 1.35 0 00-.82-.78c-.16-.1-.21-.07-.26.1zM24.2 16.15a.49.49 0 00.31-.4c.07-.36.01-.73-.16-1.05-.12-.32-.34-.6-.63-.79-.34-.21-.46-.16-.53.23-.08.36-.08.72 0 1.08.03.29.17.55.38.75a.63.63 0 00.63.18zM29 5.09a.33.33 0 00.51.13.57.57 0 00.16-.11c.2-.18.35-.42.42-.69a1.66 1.66 0 00-.26-1.52.64.64 0 00-.64-.31c-.34.6-.48 1.31-.38 2 .04.18.1.34.19.5zM46.52 14.21a1 1 0 00-.14.92c0 .07 0 .13.13.14.2.03.4.01.58-.07a1.34 1.34 0 00.71-.82.8.8 0 00-.23-.94c-.42.14-.79.41-1.05.77zM44.32 22.15a1.07 1.07 0 00.92-.59c.21-.49.3-1.03.26-1.56a1.77 1.77 0 00-1.6 2.16 3 3 0 00.42-.01zM43.72 8h.37a1.25 1.25 0 001.11-.79c.16-.43.22-.9.19-1.36h-.3a1.51 1.51 0 00-1.19.67c-.21.42-.32.89-.32 1.36-.01.05.05.12.14.12zM15.84 5.13a1 1 0 00-.78-.48l-.07.19c0 .16 0 .32-.07.48-.08.33-.08.67 0 1a1 1 0 001 .87c.2-.43.26-.9.16-1.37-.02-.25-.1-.48-.24-.69zM14.35 23.05l.09-.09c.32-.43.46-.96.41-1.49a1.28 1.28 0 00-.79-1.15c-.12-.05-.19-.05-.23.07-.12.34-.25.68-.34 1-.07.26-.07.53 0 .79a1.15 1.15 0 00.86.87zM38.14 7.16a1.59 1.59 0 000 1.58 1.51 1.51 0 001.35-1.2c.1-.44.07-.89-.08-1.31a1.69 1.69 0 00-1.27.93zM35.84 20.67a1.62 1.62 0 00-.94 2.64l.17-.08.47-.41a1.72 1.72 0 00.3-2.15zM47.44 28.7a.9.9 0 00.79.35c.2-.02.4-.07.59-.16a1 1 0 00.46-.29l-.13-.15a1 1 0 00-.57-.31 1.22 1.22 0 00-1.13.35c-.08.09-.09.13-.01.21zM51.57 28.91a.72.72 0 00-.62-.06A1.78 1.78 0 0049.66 30a1.13 1.13 0 00.14 1 2.08 2.08 0 001.77-2.09zM39.21 16.35c-.05.4.03.8.22 1.14a1.35 1.35 0 001.11-1 3 3 0 00-.18-1.58c-.19 0-.75.4-.85.56-.15.27-.26.57-.3.88zM40.25 17.48l.01-.01h-.01v.01zM29.28 6.92c-.14-.24-.27-.27-.5-.11l-.14.1c-.35.32-.6.72-.76 1.16a1.7 1.7 0 000 1.13.81.81 0 00.84-.2 2 2 0 00.7-1.5 1 1 0 00-.14-.58zM49.31 37.84c0 .29.1.46.39.47.14 0 .28-.03.42-.07.33-.08.63-.26.86-.5a1 1 0 00.37-.84l-.43-.06c-.35 0-.7.07-1 .23a1 1 0 00-.61.77zM45.13 17.65a1.71 1.71 0 000 1.63 1.35 1.35 0 001.3-1c.12-.48.15-.98.1-1.47a1.53 1.53 0 00-1.4.84zM13.94 41.43a1 1 0 00-.56-.37 1.06 1.06 0 00-.78.08c-.44.21-.79.56-1 1a.2.2 0 000 .11 1.88 1.88 0 002.34-.82zM36.25 18.19c.07-.33.1-.66.11-1 0-.36 0-.35-.36-.31A1.35 1.35 0 0034.82 18a5 5 0 00-.06 1.23 1.3 1.3 0 001.49-1.04zM29.31 16.31c-.17-.06-.2 0-.27.13-.15.35-.25.73-.3 1.11-.05.26-.05.52 0 .78a.93.93 0 00.4.6.35.35 0 00.57-.12c.23-.35.36-.76.38-1.18-.05-.23-.08-.46-.15-.68a1 1 0 00-.63-.64zM51.15 14.1c-.23.26-.37.59-.4.93a1.64 1.64 0 002.22-.74c.11-.25.16-.53.13-.8a1.46 1.46 0 00-.26-.05c-.15 0-.3.02-.45.05-.48.04-.92.26-1.24.61zM54.57 25.58a.85.85 0 00-.7.61.24.24 0 00.11.32c.14.1.3.16.46.22.33.09.67.09 1 0a1.65 1.65 0 001.26-.89c-.3-.08-.56-.18-.83-.24a3 3 0 00-1.3-.02zM3.34 17.87a1.62 1.62 0 001.92 1.52 1.85 1.85 0 00-2-2.11v.28c.05.11.07.21.08.31zM5.7 39.43h-.08a3.08 3.08 0 00-1.28-.08c-.17.03-.33.08-.48.17a1.65 1.65 0 00-.75 1.1c.32.14.66.2 1 .19a1.52 1.52 0 001.67-1.31l-.08-.07zM8.5 19.59a1.15 1.15 0 001 1c.18 0 .29 0 .32-.22.03-.22.05-.47.06-.7 0-.39-.12-.77-.36-1.08a1.28 1.28 0 00-.88-.59l-.08.16c-.14.46-.16.96-.06 1.43zM2.44 34.55a.18.18 0 00-.15.23c.05.18.12.36.21.52a2 2 0 001.1.79 1 1 0 001.22-.36c-.05-.26-.19-.5-.4-.66a2.53 2.53 0 00-1.53-.57c-.15 0-.3.01-.45.05zM12.1 22.14a1.74 1.74 0 00-.79-2.6l-.12.15a2 2 0 00-.25 1.31 1.27 1.27 0 001.16 1.14zM37.16 22.5a1.33 1.33 0 001.63-.39 2 2 0 00.43-1.45c-.24.01-.48.04-.72.08a1.92 1.92 0 00-1.45 1.64.14.14 0 00.11.12zM48.65 33.59a1.4 1.4 0 00.49-1.41c-.34 0-.67.04-1 .13a1.49 1.49 0 00-1 .79c-.1.25-.19.5-.26.77a1.72 1.72 0 001.77-.28zM26.4 7.4a1.27 1.27 0 001.44-1.1c.1-.4.13-.81.1-1.22A1.66 1.66 0 0026.4 7.4zM22.43 8.09a.68.68 0 00-.06.12 4.3 4.3 0 00-.07.5c-.05.54.1 1.08.44 1.51a1.12 1.12 0 00.78.48c.15 0 .19 0 .24-.17v-.11c.1-.5.04-1.03-.2-1.48a1.39 1.39 0 00-1.13-.85zM33.41 15.81a3.33 3.33 0 00.34 1.28.12.12 0 00.14.03l.21-.12a.79.79 0 00.48-.64c.02-.27-.01-.53-.09-.79-.09-.3-.21-.59-.33-.94l-.3.21a1.1 1.1 0 00-.45.97zM43.63 19.38a.85.85 0 00-.64-.77 2.29 2.29 0 00-.76 2.55 1 1 0 001-.41c.3-.39.45-.88.4-1.37zM33.48 9.65c-.19.5-.21 1.06-.07 1.58.04.19.13.37.26.51a1.06 1.06 0 001-1.22c-.03-.4-.1-.8-.18-1.2-.05-.22-.13-.26-.35-.23a.8.8 0 00-.66.56zM33.18 24.3c.13-.49.16-1 .09-1.5a1.42 1.42 0 00-1.49 1.2c-.04.4-.04.79 0 1.18a1.24 1.24 0 001.4-.88zM30.45 6c-.06.33-.06.67 0 1v.4a.2.2 0 00.24.19 1 1 0 00.72-.33 1.84 1.84 0 00.19-1.87.94.94 0 00-.26-.39c-.12-.09-.18-.09-.3 0-.3.26-.51.61-.59 1zM1.18 28.72a1.7 1.7 0 002.49 1.37 1.34 1.34 0 00-.83-1.2c-.53-.2-1.1-.25-1.66-.17zM50.15 26.58a.92.92 0 00-.28 1.18A2 2 0 0052.14 26c-.23 0-.47.03-.7.07-.47.06-.91.23-1.29.51zM37.5 20.06c.22-.01.43-.1.59-.27a1.84 1.84 0 00.54-1.35 1.14 1.14 0 00-.34-.89c-.19-.2-.29-.2-.46 0-.17.19-.32.4-.44.62a1.58 1.58 0 00.11 1.89zM44.66 9.26c-.08.24-.13.49-.15.74-.05.2-.05.4 0 .59l.42-.07a1.58 1.58 0 001.08-.88c.2-.44.28-.91.23-1.39a1.1 1.1 0 00-.66.11 1.56 1.56 0 00-.92.9zM18.08 15.42a1.3 1.3 0 00-.82-1l-.08.05c-.3.46-.43.99-.41 1.53 0 .31.12.61.34.84.24.18.52.28.82.28l.15-.78c.06-.3.06-.62 0-.92zM16.24 14.29c.15-.31.22-.65.21-1 .02-.4-.1-.8-.35-1.12a1 1 0 00-.95-.43c0 .21-.07.38-.09.56-.02.19-.02.38 0 .57 0 .22.04.45.1.66a1.06 1.06 0 001.08.76zM51.58 21.75a1.23 1.23 0 00-.84 1c.45.25.98.31 1.48.19a2 2 0 00.77-.33c.27-.2.45-.5.51-.83a2.6 2.6 0 00-1.92-.03zM6 17.54c-.04.54-.02 1.08.06 1.62a1 1 0 00.48.77c.14.06.3.12.45.15.17 0 .2 0 .27-.15a2 2 0 000-1.62A1.17 1.17 0 006 17.54zM45 27.28v-.05h-.06a2.47 2.47 0 00-1.68-.23.85.85 0 00-.47.28c-.2.27-.16.45.14.6l.17.08a2 2 0 001.12.06 1 1 0 00.78-.74zM3.94 30.46c.05.24.1.47.18.7.1.31.29.6.53.82a1.68 1.68 0 001.59.28 1.94 1.94 0 00-2.3-1.8zM11.73 12.49v-.75-.49a1.54 1.54 0 00-1.26-1.47v.08c-.22.62-.22 1.3 0 1.91a1 1 0 001.26.72zM5.24 15.92a1.62 1.62 0 001.39.53c.04-.36 0-.72-.09-1.06a1.61 1.61 0 00-.35-.64c-.32-.3-.75-.47-1.19-.47-.12 0-.16.07-.16.18-.02.34.02.68.13 1 .06.17.15.33.27.46zM34 30.93a1.55 1.55 0 00.72-1.36l-.14-.06a2.65 2.65 0 00-1.78.19 1.26 1.26 0 00-.8 1.74c.7.08 1.42-.1 2-.51zM44.79 34.17c.23.17.5.28.78.33v-1c0-.36-.07-.71-.2-1.05a1.06 1.06 0 00-.79-.75c-.17-.05-.35-.07-.51-.11a1.51 1.51 0 00-.2 1.33c.15.51.47.96.92 1.25zM52.22 23.81a4.48 4.48 0 00-1.51.1 1.27 1.27 0 00-1 1.27 1.81 1.81 0 002.51-1.37zM7.52 21.06c-.06.47.06.95.34 1.33a1.37 1.37 0 001.41.61c.14-.04.27-.09.4-.15a1.94 1.94 0 00-2.15-1.79zM6.92 22.78a1.85 1.85 0 00-1.76-2.3c-.02.25-.02.5 0 .76.04.3.14.6.29.87a1.42 1.42 0 001.47.67zM28 20.71c.06-.18.1-.36.13-.54a1.7 1.7 0 00-.38-1.38c-.4-.43-.9-.73-1.47-.88 0 .32-.06.61-.06.89a2.11 2.11 0 001.49 2.05c.18.08.23.05.29-.14zM52.7 19.35c-.27 0-.54.08-.78.22a1 1 0 00-.52 1c.3.17.65.24 1 .2.23-.02.46-.08.68-.17.38-.12.7-.39.88-.74a.44.44 0 000-.5l-1.26-.01zM8.31 28c.37.34.81.6 1.29.75.35.11.72.09 1.05-.06a.7.7 0 00.44-.44 2 2 0 00-.89-.68c-.4-.2-.84-.26-1.27-.17a.88.88 0 00-.68.49.9.9 0 00.06.11zM43.43 25.74a.53.53 0 00.46.37c.27.06.54.06.81 0 .22-.07.44-.15.65-.25.3-.12.57-.31.79-.56a.8.8 0 00-.58-.48 2.46 2.46 0 00-1.56.08c-.52.22-.64.61-.57.84zM12.13 35.39c.04.33.18.64.4.89a1.82 1.82 0 001.4.75c.12 0 .25-.02.36-.06.09 0 .13-.07.13-.18.01-.32-.1-.64-.3-.89-.24-.3-.55-.52-.9-.65a1.13 1.13 0 00-1.09.14zM29.8 11.3a2 2 0 00.45-1.3 1.18 1.18 0 00-.38-1 2.35 2.35 0 00-1.09 2.57.91.91 0 001.02-.27zM21.39 28.14a1.52 1.52 0 001.45.89 1 1 0 00.13-.67 2.64 2.64 0 00-.78-1.73 1 1 0 00-1.19-.27v.3c0 .52.13 1.03.39 1.48zM15.87 29.25a1.35 1.35 0 00-1.15.61.32.32 0 000 .44c.37.33.85.52 1.35.54.26.01.53 0 .79-.05a1.26 1.26 0 00.8-.86 2.28 2.28 0 00-1.79-.68zM20.73 15.71c.04.32.18.63.4.87a1 1 0 00.91.34c.16-.46.16-.96 0-1.42a1.49 1.49 0 00-.56-.87 1.16 1.16 0 00-.9-.18c.03.42.08.84.15 1.26zM10.68 25.93a1 1 0 00-.51.67c.52.35 1.15.5 1.78.45a1 1 0 00.93-.89 1.93 1.93 0 00-2.2-.23zM51 19.17a1.84 1.84 0 00-2.12 1.77A1.58 1.58 0 0051 19.17zM20.2 6.92c-.11.2-.18.43-.2.66-.1.51-.02 1.05.24 1.5a.91.91 0 00.94.53 2 2 0 00-.98-2.69zM5.46 28.11h-.09c0 .24-.09.47-.12.7v.31a1.5 1.5 0 00.82 1.3l.6.29A1.62 1.62 0 006.61 29c-.3-.39-.7-.7-1.15-.89zM44.12 15.24a3.2 3.2 0 00-.19 1.54c.18.02.37.02.55 0a1.27 1.27 0 00.93-1c.1-.44.13-.9.1-1.34a1.3 1.3 0 00-1.39.8zM38.57 3.72a1.54 1.54 0 00-.14 1.59 1.64 1.64 0 001.19-.64c.31-.5.44-1.09.38-1.67a1.55 1.55 0 00-1.43.72zM11.72 9.26a.91.91 0 00.94.11V9c.03-.44-.03-.89-.17-1.31a1.34 1.34 0 00-.82-.81c-.17-.06-.22 0-.27.14-.17.46-.2.96-.1 1.44.04.3.19.6.42.8zM52.31 33.51l.38-.11a1.3 1.3 0 00-.74-1 2.29 2.29 0 00-1.12-.21c-.26.02-.5.1-.73.22v.4a1 1 0 00.75.7c.47.15.99.15 1.46 0zM27 14.73a.9.9 0 00-.83-.47l-.09.24c-.09.44-.09.9 0 1.34a1.52 1.52 0 00.7 1.16c.38-.07.5-.35.55-.68.1-.55-.02-1.12-.33-1.59zM27.29 23.11v-.39c-.04-.36-.2-.7-.47-.94a2.44 2.44 0 00-1.64-.49v.27c.08.36.22.7.43 1a1.87 1.87 0 001.58.72c.07 0 .11-.06.1-.17zM19 11c.02.26.09.5.21.73a.9.9 0 001.2.37 4 4 0 00-.16-1.53 1.54 1.54 0 00-1-1s-.06.06-.07.1c-.17.42-.23.88-.18 1.33zM4 24.05a1.79 1.79 0 001.68.8c.25-.03.5-.09.73-.17-.02-.31-.14-.6-.33-.85a1.48 1.48 0 00-1-.44 4 4 0 00-1.24.08c0 .2.06.4.16.58zM49.43 15.06a1.35 1.35 0 00-1.33.47 1.43 1.43 0 00-.35 1.37 1.6 1.6 0 001.68-1.84zM45.88 41.83a1.69 1.69 0 002 .35v-.14c-.14-.21-.27-.44-.42-.63a1.47 1.47 0 00-1.86-.54c-.03.34.07.69.28.96zM21.39 18.44c-.16 1.18.51 2 1.92 1.92.2-1.13-.57-2.01-1.92-1.92zM33.53 7.79a1.06 1.06 0 001.07-.63 1.73 1.73 0 00-.12-1.52.84.84 0 00-.58-.43 2.24 2.24 0 00-.37 2.58zM30.37 13.07a.75.75 0 00.82-.38 1.28 1.28 0 000-1.13.57.57 0 00-.39-.35 1.63 1.63 0 00-.43 1.86zM42.67 17.53c.21-.37.3-.8.24-1.21a1 1 0 00-.42-.82 2.18 2.18 0 00-1 2.55 1 1 0 001.18-.52zM41.7 5.43a1.55 1.55 0 001.12-1.23c0-.19 0-.39.07-.56a.81.81 0 000-.49 1.72 1.72 0 00-1.54 2.39l.35-.11zM47.56 24.29h.64c.32-.04.62-.2.84-.44.34-.46.53-1 .55-1.57a1.83 1.83 0 00-2.03 2.01zM53.43 35.41a3 3 0 00.3-1.11 1.68 1.68 0 00-1.34.19 1.94 1.94 0 00-.77 1.64c.28.04.55.04.83 0a1.34 1.34 0 00.98-.72zM18 25a1.69 1.69 0 001.13 1.37c.3-.39.47-.87.45-1.37.04-.44-.08-.87-.35-1.22-.17-.23-.4-.4-.67-.51-.38.5-.58 1.1-.56 1.73zM19.48 5.12a.89.89 0 00.12.73.46.46 0 00.76.1A2.4 2.4 0 0021 4.43c.03-.27-.01-.55-.12-.8-.1-.22-.23-.24-.42-.09-.41.34-.71.8-.85 1.31-.05.09-.1.18-.13.27zM7.36 27.64v-.39a1.56 1.56 0 00-1.17-1.4l-.61-.18v.64c0 .45.19.88.5 1.2a1.24 1.24 0 001.08.4c.14-.02.2-.07.2-.27zM46.54 21.36a1.1 1.1 0 00.91-.21 1.57 1.57 0 00.55-1.48.92.92 0 00-.4-.67c-.13.12-.27.24-.42.34a1.93 1.93 0 00-.78 1.92.15.15 0 00.14.1zM43 37.56c.07.21.15.26.36.22a.91.91 0 00.56-.3c.3-.37.46-.83.43-1.31.01-.25-.05-.49-.18-.7-.24-.38-.35-.4-.66-.07a2 2 0 00-.51 1.13c-.11.33-.11.7 0 1.03zM56.18 33.9a3.21 3.21 0 00-1.41.13 1.27 1.27 0 001.14 1.23c.49.03.97-.02 1.44-.17a1.3 1.3 0 00-1.17-1.19zM41.68 12a1.83 1.83 0 001.71-2.19A1.65 1.65 0 0041.68 12zM35.5 2.94a1.16 1.16 0 00.86-.72c.16-.44.22-.91.16-1.38A1.73 1.73 0 0034.81 3c.23 0 .46-.02.69-.06zM14.33 27.26c-.32 0-.63.06-.92.18a1.38 1.38 0 00-.75.84c.52.24 1.1.34 1.67.29a1.07 1.07 0 001.07-1.16c-.35-.1-.7-.15-1.07-.15zM37.26 27a.9.9 0 00-.17-.09 2.86 2.86 0 00-2.29.21c-.3.17-.55.43-.69.75-.12.23-.08.32.15.43.13.06.28.1.42.14.6.13 1.24.03 1.79-.27a1.22 1.22 0 00.79-1.17zM54 30.73a5.34 5.34 0 00-.8-.14 2.1 2.1 0 00-.83.1.66.66 0 00-.37.31c-.08.2-.1.41-.08.62.13.05.24.1.35.13.44.13.9.14 1.34.05.26-.05.5-.14.73-.29a.65.65 0 00.33-.48c-.2-.15-.43-.25-.67-.3zM53.14 24.22a.22.22 0 00.18.25c.29.11.6.16.91.15.42.03.83-.06 1.2-.26a2 2 0 00.4-.36c.11-.12.08-.21-.06-.3l-.1-.05a3.1 3.1 0 00-1.2-.29 2 2 0 00-.81.11.73.73 0 00-.52.75zM32.15 2.08c.04-.14.06-.28.08-.42V.83a1.5 1.5 0 00-1.33.76 2.67 2.67 0 00-.25 1.58 1.29 1.29 0 001.5-1.09zM40.29 11.66a2.54 2.54 0 00-1.54 2.27L39 14a.85.85 0 00.91-.23 1.92 1.92 0 00.58-1.65.73.73 0 00-.2-.46zM17.54 3.05c-.3.52-.43 1.12-.36 1.72a.74.74 0 00.44.67c.36.14.41.12.59-.16l.11-.23a2.7 2.7 0 00-.07-1.86.77.77 0 00-.48-.45l-.23.31zM48.61 36.58c.3.02.6-.08.84-.27a1.7 1.7 0 00.29-2.14c-.24.17-.48.33-.7.5-.13.1-.25.2-.35.32a1.71 1.71 0 00-.35 1.31c.02.21.06.28.27.28zM46 37.25c.21.16.25.17.43 0a2.17 2.17 0 00.55-2 .9.9 0 00-.38-.61l-.3.24a2.21 2.21 0 00-.67 1.68.9.9 0 00.37.69zM21.08 34.25H21a2.5 2.5 0 00-2 .18.82.82 0 00-.43.58l.09.06a2.1 2.1 0 002 .36 1 1 0 00.52-.2.51.51 0 00-.1-.98zM50.69 42a1.14 1.14 0 00-1-1 5.1 5.1 0 00-1 0 1 1 0 00.66 1.13c.45.06.91.02 1.34-.13zM36.87 9.34c.07-.24.08-.49.05-.73a1.8 1.8 0 00-.51-1.07 2 2 0 00-.56 2.67 1.16 1.16 0 001.02-.87zM44.78 12.19a1.6 1.6 0 00-.15 1.44l.24-.06a1.53 1.53 0 001.11-1 4 4 0 00.17-.83v-.2a1.37 1.37 0 00-1.37.65zM42.19 13.29a1.72 1.72 0 00-.44 1.62 1.86 1.86 0 001.81-2 1.42 1.42 0 00-1.37.38zM39.47 23.61a1.13 1.13 0 001.14 0c.44-.3.83-.67 1.13-1.11a1.8 1.8 0 00-2.63.84c.11.1.23.19.36.27zM7.41 42.88c-.44 0-.87.11-1.24.35a1.29 1.29 0 00-.52 1.38c.2 0 .4-.03.61-.07.36-.05.69-.25.91-.54.2-.3.3-.65.28-1a.31.31 0 00-.04-.12zM6.44 37.11c-.41-.12-.84-.22-1.26-.29a1.74 1.74 0 00-1.75.75c-.12.17-.12.2 0 .32a2.62 2.62 0 002.01.45 1.4 1.4 0 001-1.23zM9.41 41.71c-.33 0-.66.1-.93.29-.23.15-.42.34-.58.56a1.48 1.48 0 002.36-.26 1 1 0 00-.85-.59zM5.88 42.17a1.6 1.6 0 001.91-1.56 1.5 1.5 0 00-1.91 1.56zM25.8 24.28c-.07.33-.1.66-.08 1a1.25 1.25 0 001 1.12 1.41 1.41 0 00-.92-2.12zM22.63 21.53a5 5 0 00-.73-.2c-.15 0-.21 0-.2.19.01.19 0 .26.06.39a1.12 1.12 0 00.48.74c.26.15.55.24.85.26.23 0 .25 0 .25-.28a1.13 1.13 0 00-.71-1.1zM9.5 40.89a1.18 1.18 0 00.87.25 2 2 0 001.33-1 1.4 1.4 0 00-2.2.75zM40.49 29.56a.78.78 0 00.61.39 1.64 1.64 0 001.48-.72c.03-.05.06-.1.07-.17a1.5 1.5 0 00-2.16.5zM35.13 37.88a1.43 1.43 0 001.07-1.2l-.71-.16a1.69 1.69 0 00-1.84.8 1.23 1.23 0 001.48.56zM49.62 39c-.47-.02-.93.1-1.34.32a1.47 1.47 0 002.43.52 1.24 1.24 0 00-1.09-.84zM9.21 44.1a1 1 0 00-1.05-.1 1.1 1.1 0 00-.51 1.11c.77.29 1.35.05 1.56-1.01zM57.8 31.94a7.69 7.69 0 00-1-.4 1.29 1.29 0 00-1.65.89.88.88 0 000 .23c1 .34 1.95.4 2.65-.72zM12 43.74a1.7 1.7 0 000-.47 6.68 6.68 0 00-.78 0 2 2 0 00-.6.15.83.83 0 00-.53.75 1.82 1.82 0 001.51.15.68.68 0 00.4-.58zM38.82 37.42a1.07 1.07 0 000-1.21c-.87.32-1.64 1-1.44 1.79a1.38 1.38 0 001.44-.58z" /><path fill-rule="evenodd" clip-rule="evenodd" d="M54.64 56.28h-.28l-1.26-.16-.62-.06-1.38-.12-1.8-.17-1.95-.18-1.35-.11-1.55-.11-1.64-.12-1.9-.11-1-.06-1.25-.08h-1.22c-.56 0-1.12 0-1.68-.07-.56-.07-1.29 0-1.93 0-1.83-.1-3.65 0-5.48-.05h-2.86c-.63 0-1.27 0-1.9.06l-1.31.05-1.22.01-.85.05-1.75.12-1.27.11-1.52.16-.71.07c-.44 0-.88.1-1.31.15l-1 .13-1.06.15-.9.14-1.5.26c-.35.06-.7.12-1.07.16l.14-.09 1.56-.75a43.73 43.73 0 016.52-2.11c.62-.15 1.25-.27 1.88-.39.63-.12 1.22-.21 1.83-.31.44-.07.87-.15 1.31-.21l1.07-.13 1.29-.16.65-.06.93-.07 1.62-.22v-1.09a7.95 7.95 0 00-.1-.84c-.08-.52-.14-1.05-.25-1.56-.2-.9-.27-1.78-.47-2.67-.15-.68-.24-1.36-.35-2-.07-.44-.11-.88-.13-1.32 0-.14 0-.21-.18-.27a25 25 0 00-4.58-1.15c-.55-.07-1.1-.1-1.65-.1a4.93 4.93 0 00-3.46 1.36c-.49.42-2.87 2.6-3.39 2.88-.22.12-.91.3-1.08.16.86-.72 1.69-1.5 2.46-2.32.8-.7 1.52-1.49 2.16-2.33-.47-.1-.94-.2-1.4-.35-.92-.3-1.81-.66-2.67-1.09-1.12-.56-2.2-1.2-3.28-1.84-.86-.51-1.74-1-2.61-1.49l-.25-.15c.26-.27.62-.43 1-.45.7-.04 1.39.1 2 .44.52.25 1 .52 1.54.79a20 20 0 004.68 1.71c.3.06.62.18.93.22.31.04 1.08.31 1.19.21.11-.1-.19-.38-.22-.44-.21-.35-.51-.66-.71-1a73 73 0 01-1.91-3.54 34.2 34.2 0 01-1.51-3.52L12 28.5v-.22s.59.59.85.91A31 31 0 0115 32.47c.35.58.72 1.15 1.09 1.73a49.86 49.86 0 001.05 1.41l.18.21c.41.42 1.42 1.31 1.49 1.35a7.8 7.8 0 003.07 1.29c.95.2 1.91.3 2.88.33.29 0 .57 0 .85-.06.1 0 .15 0 .16-.16 0-.2-.06-.41-.18-.58a57.21 57.21 0 00-8.9-10 37.13 37.13 0 00-6.14-4.29.5.5 0 01.52-.62 24 24 0 016.52 3.37 59.51 59.51 0 016.62 5.74c0-2.77-.13-5.88-.18-11a39 39 0 011.25 6.43c.13 1.86.42 3.7.87 5.52.38-1.56 3-12.86 3.12-13.16.54-.1 1.1-.06 1.62.12.5 1.8-.51 8.22-.55 8.54.08-.05 2-2.06 3.13-2.89 1.53-1.11 3.08-2.2 4.53-2.21-.14.44-3.66 2.46-5.3 4.38a11.16 11.16 0 00-2.7 6.84 66.44 66.44 0 006.11-4.6c5.58-4.68 6.68-7.63 7.59-7.44.37.14-.58 2.38-1.19 3.13-.31.37-1.57 2-1.77 2.27A49.52 49.52 0 0137.5 32c.14 0 3.61-1.12 4.55-1.51 1.42-.59 4.05-2.55 4.16-2.44.11.11-.16.42-.23.53-.24.43-.56.82-.93 1.15-.55.5-1.16.93-1.82 1.27-1.02.53-2.08.99-3.16 1.37-1.37.46-2.7 1.01-4 1.66-.58.3-1.12.68-1.61 1.11l-.92.81c-.67.47-1.23.8-1.91 1.32-.26.21-1 .7-1.23.93a.5.5 0 00-.13.12c-.07.1-.05.21.08.24.33.04.67.05 1 .05l1.65-.05c.24 0 6 .45 6.15.47l.84.11A13.57 13.57 0 0042.4 39c1.18-.21 2.34-.5 3.48-.85.58-.16 1.17-.28 1.75-.41a.86.86 0 01.24 0c-.1.19-.16.37-.26.52-.3.47-.69.86-1.16 1.15-.35.2-.71.38-1.09.52-.09 0-.53.18-.67.22-.73.21-1.47.38-2.22.51-.55.11-1.63.1-2.18.21-.1.03-.2.08-.29.13l.47.27c.87.34 1.76.62 2.67.84 1 .29 2 .56 3 .86.46.14.9.33 1.33.57l.12.09h-.18c-.3 0-.59 0-.88-.06-.47 0-.94-.1-1.41-.16s-.84-.1-1.25-.19c-.41-.09-1.05-.23-1.56-.36-1.32-.34-2.64-.7-4-1-.55-.13-1.12-.21-1.69-.31-1.08-.26-2.19-.4-3.3-.44-.48 0-1 .1-1.43.15h-1c0 .09.1.45.12.51.38 1.18.82 2.33 1.27 3.47.36.91.88 1.9 1.22 2.81.35.96.64 1.95.86 2.95a22.45 22.45 0 01.26 1.24l1.35.07 1.13.11.73.06.91.07.58.06c.63.05 2.4.36 3.11.5h.08c.15 0 .32 0 .47.08.62.14 1.24.25 1.85.39.92.21 1.85.42 2.77.65.77.2 1.54.4 2.31.63l3.67 1.08c.42.06.73.21 1.06.34z" /></svg>