<svg viewBox="0 0 625 190" fill="none" xmlns="http://www.w3.org/2000/svg"><path d="M187.83 161.63l-17.21-17.21-4.92 4.92a88.35 88.35 0 01-62.88 26.04 88.37 88.37 0 01-62.88-26.04A88.38 88.38 0 0113.9 86.45a88.37 88.37 0 0126.04-62.88l4.92-4.92L28.24 2.04A6.9 6.9 0 0020.66.53a6.9 6.9 0 00-3.78 3.76 6.92 6.92 0 001.52 7.58l6.96 6.96A101.87 101.87 0 006.91 49.25 102.64 102.64 0 000 86.45c0 27.47 10.7 53.29 30.12 72.71a102.16 102.16 0 0072.71 30.12c24.88.07 48.93-8.95 67.63-25.36l7.54 7.54a6.97 6.97 0 009.83-9.83z" /><path d="M31.75 86.17c0 9.57 1.88 18.86 5.58 27.6a70.57 70.57 0 0015.19 22.54 70.58 70.58 0 0022.54 15.19 70.46 70.46 0 0027.6 5.58 70.7 70.7 0 0050.14-20.77 70.57 70.57 0 0015.19-22.54 70.46 70.46 0 005.58-27.6 70.7 70.7 0 00-20.77-50.14 70.57 70.57 0 00-22.54-15.19 70.46 70.46 0 00-27.6-5.58 70.43 70.43 0 00-27.6 5.58 70.58 70.58 0 00-22.54 15.19 70.58 70.58 0 00-15.19 22.54 70.43 70.43 0 00-5.58 27.6zm30.99-39.93a56.06 56.06 0 0139.93-16.54 56.08 56.08 0 0139.93 16.54 56.1 56.1 0 0116.54 39.93 56.1 56.1 0 01-16.54 39.93 56.1 56.1 0 01-39.93 16.54 56.1 56.1 0 01-39.93-16.54A56.1 56.1 0 0146.2 86.17a56.08 56.08 0 0116.54-39.93zM236.81 46.88c0 2.98 1.81 4.21 4.53 4.21s3.95-1.23 3.95-4.21V17.22c0-1.36.52-1.94 1.88-1.94h6.99c1.36 0 1.81.58 1.81 1.94v31.54c0 5.57-3.24 11.07-14.64 11.07s-15.02-5.51-15.02-11.07v-4.27c0-1.36.52-1.94 1.88-1.94h6.8c1.36 0 1.81.58 1.81 1.94v2.39h.01zm39.7-16.77c.42 1.28.79 2.58 1.1 3.89.35-1.32.78-2.62 1.3-3.89l5.44-12.89c.45-1.1.91-1.94 2.27-1.94h6.86c1.36 0 2.01.71 1.42 1.94l-11.92 25.77v14.38c0 1.36-.45 1.94-1.81 1.94h-6.99c-1.36 0-1.88-.58-1.88-1.94V44.29l-11.98-27.07c-.52-1.17 0-1.94 1.36-1.94h7.9c1.36 0 1.94.78 2.33 1.94l4.6 12.89zm41.96-2.85c0-2.98-2.07-4.08-5.05-4.08s-5.12 1.1-5.12 4.08v.65c0 1.75 1.36 2.53 2.07 2.79l10.88 3.69c4.79 1.62 8.09 4.99 8.09 9.78v4.6c0 5.57-3.95 11.07-16.13 11.07s-16.25-5.5-16.25-11.07v-4.34c0-1.36.52-1.94 1.88-1.94h6.74c1.36 0 1.81.58 1.81 1.94v2.91c0 2.98 2.53 4.08 5.7 4.08 3.17 0 5.76-1.1 5.76-4.08v-1.3c0-2.33-3.11-3.43-5.57-4.34l-9.32-3.5a9.65 9.65 0 01-6.02-8.61v-3.76c0-5.57 3.37-11.07 15.35-11.07s15.61 5.5 15.61 11.07v2.4c0 1.36-.52 1.94-1.88 1.94h-6.74c-1.36 0-1.81-.58-1.81-1.94v-.97zm51.29 30.11c.65.97.39 1.94-.97 1.94h-8.94c-1.36 0-2.07-.97-2.72-1.94L346.9 41.5h-.71v15.87c0 1.36-.45 1.94-1.81 1.94h-6.99c-1.36 0-1.88-.58-1.88-1.94V17.22c0-1.36.52-1.94 1.88-1.94h6.99c1.36 0 1.81.58 1.81 1.94v16.51h.65l9.91-16.51c.65-1.04 1.68-1.94 3.04-1.94h7.45c1.36 0 1.55.91.91 1.94l-12.3 19.69 13.91 20.46zM255.14 97.85l6.35 15.93c.45 1.17-.39 1.94-1.81 1.94h-6.99c-1.23 0-1.49-1.04-1.88-1.94l-5.7-14.31h-4.86v14.31c0 1.36-.45 1.94-1.81 1.94h-6.99c-1.36 0-1.88-.58-1.88-1.94V73.63c0-1.36.52-1.94 1.88-1.94h13.99c12.17 0 16.45 5.5 16.45 11.07v5.63c-.02 3.69-1.9 7.38-6.75 9.46zm-14.9-17.42v10.3h5.18c3.17 0 5.89-1.23 5.89-4.21v-1.88c0-2.98-2.72-4.21-5.89-4.21h-5.18zm30.31 35.29c-1.36 0-1.88-.58-1.88-1.94V73.63c0-1.36.52-1.94 1.88-1.94h22.15c1.36 0 1.94.45 1.94 1.81v5.05c0 1.36-.58 1.88-1.94 1.88h-13.34v8.42h12.3c1.36 0 1.94.45 1.94 1.81v4.73c0 1.36-.58 1.88-1.94 1.88h-12.3v9.71h13.99c1.36 0 1.94.45 1.94 1.81v5.05c0 1.36-.58 1.88-1.94 1.88h-22.8zm38.14-12.43c0 2.98 1.81 4.21 4.53 4.21s3.95-1.23 3.95-4.21V73.63c0-1.36.52-1.94 1.88-1.94h6.99c1.36 0 1.81.58 1.81 1.94v31.54c0 5.57-3.24 11.07-14.63 11.07-11.4 0-15.02-5.5-15.02-11.07v-4.27c0-1.36.52-1.94 1.88-1.94h6.8c1.36 0 1.81.58 1.81 1.94v2.39zm46.82-19.63c0-2.98-2.07-4.08-5.05-4.08s-5.12 1.1-5.12 4.08v.65c0 1.75 1.36 2.53 2.07 2.78l10.88 3.69c4.79 1.62 8.09 4.99 8.09 9.78v4.6c0 5.57-3.95 11.07-16.13 11.07S334 110.73 334 105.16v-4.34c0-1.36.52-1.94 1.88-1.94h6.73c1.36 0 1.81.58 1.81 1.94v2.91c0 2.98 2.53 4.08 5.7 4.08 3.17 0 5.76-1.1 5.76-4.08v-1.29c0-2.33-3.11-3.43-5.57-4.34l-9.33-3.5a9.65 9.65 0 01-6.02-8.61v-3.76c0-5.57 3.37-11.07 15.35-11.07s15.61 5.5 15.61 11.07v2.4c0 1.36-.52 1.94-1.88 1.94h-6.74c-1.36 0-1.81-.58-1.81-1.94v-.97h.02zm18.91 32.06c-1.36 0-1.88-.58-1.88-1.94V73.63c0-1.36.52-1.94 1.88-1.94h22.15c1.36 0 1.94.45 1.94 1.81v5.05c0 1.36-.58 1.88-1.94 1.88h-13.34v8.42h12.3c1.36 0 1.94.45 1.94 1.81v4.73c0 1.36-.58 1.88-1.94 1.88h-12.3v9.71h13.99c1.36 0 1.94.45 1.94 1.81v5.05c0 1.36-.58 1.88-1.94 1.88h-22.8zm32.77 0c-1.36 0-1.88-.58-1.88-1.94V73.63c0-1.36.52-1.94 1.88-1.94h12.17c12.17 0 16.45 4.53 16.45 10.1v3.56c0 3.11-1.49 5.5-4.4 7.19 4.01 1.62 6.54 4.34 6.54 7.77v4.79c0 5.57-4.27 10.62-16.45 10.62h-14.31zm8.8-35.62v9.33h3.37c3.17 0 5.89-1.23 5.89-4.27v-1.68c0-2.98-2.72-3.37-5.89-3.37h-3.37v-.01zm0 17.23v9.97h5.5c3.17 0 5.89-1.17 5.89-4.15v-2.07c0-2.46-2.72-3.75-5.89-3.75h-5.5zm38.47 5.96c0 2.98 2.65 4.21 5.83 4.21 3.17 0 5.89-1.23 5.89-4.21V73.63c0-1.36.52-1.94 1.88-1.94h6.99c1.36 0 1.81.58 1.81 1.94v31.54c0 5.57-4.4 11.07-16.58 11.07-12.18 0-16.51-5.5-16.51-11.07V73.63c0-1.36.52-1.94 1.88-1.94h7c1.36 0 1.81.58 1.81 1.94v29.66zm55.43-5.44l6.35 15.93c.45 1.17-.39 1.94-1.81 1.94h-6.99c-1.23 0-1.49-1.04-1.88-1.94l-5.7-14.31H495v14.31c0 1.36-.45 1.94-1.81 1.94h-7c-1.36 0-1.88-.58-1.88-1.94V73.63c0-1.36.52-1.94 1.88-1.94h13.99c12.17 0 16.45 5.5 16.45 11.07v5.63c0 3.69-1.88 7.38-6.74 9.46zM495 80.43v10.3h5.18c3.17 0 5.89-1.23 5.89-4.21v-1.88c0-2.98-2.72-4.21-5.89-4.21H495zm30.3 35.29c-1.36 0-1.88-.58-1.88-1.94V73.63c0-1.36.52-1.94 1.88-1.94h22.15c1.36 0 1.94.45 1.94 1.81v5.05c0 1.36-.58 1.88-1.94 1.88h-13.34v8.42h12.3c1.36 0 1.94.45 1.94 1.81v4.73c0 1.36-.58 1.88-1.94 1.88h-12.3v9.71h13.99c1.36 0 1.94.45 1.94 1.81v5.05c0 1.36-.58 1.88-1.94 1.88h-22.8zm51.23-42.09l11.72 40.15c.39 1.23-.06 1.94-1.42 1.94h-7.19c-1.36 0-1.94-.71-2.27-1.94l-1.68-6.22h-10.75l-1.68 6.22c-.33 1.23-.91 1.94-2.27 1.94h-6.54c-1.36 0-1.81-.71-1.42-1.94l11.72-40.15c.39-1.29 1.04-1.94 2.4-1.94h6.99c1.35-.01 2 .64 2.39 1.94zm-4.08 22.01c-1.04-3.95-1.94-12.95-2.01-13.53-.13.91-1.17 9.78-2.2 13.53l-.97 3.5h6.09l-.91-3.5zm30.11 7.65c0 2.98 2.66 4.21 5.83 4.21s5.89-1.23 5.89-4.21V73.63c0-1.36.52-1.94 1.88-1.94h6.99c1.36 0 1.81.58 1.81 1.94v31.54c0 5.57-4.4 11.07-16.58 11.07-12.18 0-16.51-5.5-16.51-11.07V73.63c0-1.36.52-1.94 1.88-1.94h7c1.36 0 1.81.58 1.81 1.94v29.66zM254.9 175.44c0 .73-.26 1.08-1.04 1.08h-3.58c-.78 0-1.04-.35-1.04-1.08v-16.4c-.04.13-.82 2.76-1.25 3.93l-3.28 8.03c-.3.69-.69 1.08-1.42 1.08h-3.06c-.73 0-1.12-.43-1.38-1.08l-3.67-8.68c-.43-.91-.95-2.89-.99-3.19v16.32c0 .73-.26 1.08-1.04 1.08h-3.41c-.78 0-1.04-.35-1.04-1.08v-27.19c0-.74.26-1.08 1.04-1.08h3.41c.56 0 .78.21.95.6l6.6 15.07a32.67 32.67 0 011.08 3.02s.56-1.68 1.12-2.98l6.39-15.2c.17-.39.48-.52.99-.52h3.58c.78 0 1.04.34 1.04 1.08v27.19zm35.74-28.28c.78 0 1.08.26 1.08 1.04v2.63c0 .78-.3 1.04-1.08 1.04h-9.97v7.17h9.24c.78 0 1.12.26 1.12 1.04v2.46c0 .78-.35 1.08-1.12 1.08h-9.24v8.2h10.45c.73 0 1.08.26 1.08.99v2.68c0 .73-.35 1.04-1.08 1.04h-14.89c-.73 0-1.08-.3-1.08-1.08v-5.27h-7.9l-3.06 5.27c-.3.52-.65 1.08-1.25 1.08h-3.54c-.73 0-1.17-.43-.78-1.08l16.19-27.24c.21-.34.65-1.04 1.51-1.04h14.32v-.01zm-20.63 18.39h5.14v-9.11c-.45.95-.94 1.89-1.47 2.8l-3.67 6.31zm32.77-.21v10.06c0 .78-.26 1.12-1.04 1.12h-3.76c-.78 0-1.04-.35-1.04-1.12v-27.11c0-.78.26-1.12 1.04-1.12h9.07c7.81 0 10.45 3.41 10.45 7.04v4.1c0 2.55-1.29 4.96-4.75 6.22l4.66 10.88c.3.69-.22 1.12-.99 1.12h-3.8c-.6 0-.78-.43-1.08-1.12l-4.23-10.06h-4.53v-.01zm0-4.84h4.27c2.89 0 4.66-1.08 4.66-3.24v-2.03c0-2.16-1.77-3.24-4.66-3.24h-4.27v8.51zm41.65 14.94c.39.52.22 1.08-.56 1.08h-4.79c-.73 0-1.17-.56-1.55-1.08l-8.12-11.31h-.73v11.31c0 .73-.26 1.08-1.04 1.08h-3.75c-.78 0-1.04-.35-1.04-1.08v-27.19c0-.74.26-1.08 1.04-1.08h3.75c.78 0 1.04.34 1.04 1.08v11.61h.69l7.68-11.61c.39-.61.95-1.08 1.73-1.08h4.01c.78 0 .91.52.52 1.08l-9.02 13.34 10.14 13.85zm19.04 1.08c-.78 0-1.12-.35-1.34-1.08l-8.07-27.2c-.22-.69.04-1.08.82-1.08h4.1c.73 0 1.04.39 1.25 1.08l4.19 14.68a47.63 47.63 0 011.04 6.26s.52-3.93 1.17-6.22l4.19-14.72c.22-.69.52-1.08 1.29-1.08h3.76c.73 0 .99.39.78 1.08l-8.03 27.2c-.22.73-.6 1.08-1.38 1.08h-3.77zm17.88 0c-.78 0-1.04-.35-1.04-1.12v-27.11c0-.78.26-1.12 1.04-1.12h14.76c.73 0 1.08.26 1.08 1.04v2.72c0 .78-.35 1.08-1.08 1.08h-9.97V159h9.24c.78 0 1.12.26 1.12 1.04v2.59c0 .73-.34 1.04-1.12 1.04h-9.24v8.03h10.4c.78 0 1.08.26 1.08 1.04v2.72c0 .78-.3 1.08-1.08 1.08h-15.19v-.02zm26.89-11.18v10.06c0 .78-.26 1.12-1.04 1.12h-3.76c-.78 0-1.04-.35-1.04-1.12v-27.11c0-.78.26-1.12 1.04-1.12h9.06c7.81 0 10.45 3.41 10.45 7.04v4.1c0 2.55-1.29 4.96-4.75 6.22l4.66 10.88c.3.69-.22 1.12-.99 1.12h-3.8c-.6 0-.78-.43-1.08-1.12l-4.23-10.06h-4.52v-.01zm0-4.84h4.27c2.89 0 4.66-1.08 4.66-3.24v-2.03c0-2.16-1.77-3.24-4.66-3.24h-4.27v8.51zm20.98 16.02c-.69 0-.91-.39-.91-1.12v-27.11c0-.78.26-1.12 1.04-1.12h9.41c7.81 0 10.53 3.41 10.53 7.04v15.28c0 3.63-2.72 7.04-10.53 7.04h-9.54v-.01zm4.93-4.84h4.62c2.94 0 4.71-1.08 4.71-3.24v-13.21c0-2.16-1.77-3.24-4.71-3.24h-4.62v19.69zm21.75 4.84c-.78 0-1.04-.35-1.04-1.12v-27.11c0-.78.26-1.12 1.04-1.12h14.76c.73 0 1.08.26 1.08 1.04v2.72c0 .78-.35 1.08-1.08 1.08h-9.97V159h9.24c.78 0 1.12.26 1.12 1.04v2.59c0 .73-.34 1.04-1.12 1.04h-9.24v8.03h10.4c.78 0 1.08.26 1.08 1.04v2.72c0 .78-.3 1.08-1.08 1.08H455.9v-.02zm42.05-1.08c0 .73-.26 1.08-1.04 1.08h-3.41c-.56 0-.78-.13-.99-.52l-8.33-14.29c-1.17-1.94-1.68-3.37-1.73-3.5v17.22c0 .73-.26 1.08-1.04 1.08H478c-.78 0-1.04-.35-1.04-1.08v-27.19c0-.74.26-1.08 1.04-1.08h3.41c.47 0 .73.13.91.43l8.68 14.89c.54.98 1.04 1.99 1.47 3.02v-17.27c0-.74.26-1.08 1.04-1.08h3.41c.78 0 1.04.34 1.04 1.08v27.21h-.01z" /></svg>