<svg xmlns="http://www.w3.org/2000/svg" viewBox="0 0 520.06 65.15"><defs/><path class="a" d="M85.2 64.26V.89h32.58v6.05H91.61v22.61h23.61v6.05H91.61v22.61h26.17v6.05zM173.5 65.15a32.58 32.58 0 1132.49-32.58 32.6 32.6 0 01-32.49 32.58zm0-58.92c-14.51 0-25.81 11.84-25.81 26.34s11.29 26.35 25.81 26.35 25.72-11.84 25.72-26.35S187.91 6.23 173.5 6.23zM373.56 65.15a32.58 32.58 0 1132.49-32.58 32.59 32.59 0 01-32.49 32.58zm0-58.92c-14.5 0-25.81 11.84-25.81 26.34s11.31 26.35 25.81 26.35 25.72-11.84 25.72-26.35-11.3-26.34-25.72-26.34zM433.64 64.26V.89h6.4v63.37zM495.5 34.83l24.57 29.46h-8.72l-23.5-28.57h-9.35v28.54h-6.41V.89h18.6a17.27 17.27 0 014.81 33.94zm-17-5h11.84c6.04 0 11.16-5.44 11.16-11.58a11.22 11.22 0 00-11.12-11.31H478.5zM53.16.89h-6.41v49.57L1.83.9H0v63.36h6.41V14.69L51.6 64.53h1.56V.89zM312.81.89h-6.41v49.57L261.48.9h-1.83v63.36h6.41V14.69l45.19 49.84h1.56V.89z"/></svg>