<svg viewBox="0 0 531 60" fill="none" xmlns="http://www.w3.org/2000/svg"><path d="M93.9 13.99h10.3a4.6 4.6 0 012.12.6c.4.24.76.56 1.02.95l9.14 17.31 5.22-16.93c.04-.43-.07-.85-.3-1.2-.3-.42-.36-.47-1.2-.7h8.9c1.28 0 1.6.13 2.12.6.18.24.62.61.46 1.2l-10.95 35.96h-4.71a6.7 6.7 0 01-2.3-.61c-.51-.2-.97-.53-1.33-.95l-10.28-21-6.4 20.1a1.62 1.62 0 00.46 1.56c.42.49 2.56.84 1.79.84H86.92a3.23 3.23 0 01-1.77-.61 1.2 1.2 0 01-.42-1.27l10.45-33.78a1.55 1.55 0 00-.2-1.37c-.34-.55-.55-.52-1.11-.7h.03zm57.33 12.79c-2.23 0-4.92.14-6.9 2.07-3.38 3.6-5.74 10.7-5.74 13.78-.32 5.28 10.09 5.28 12.26 2.46 3.51-4.12 7.47-13.18 5.42-16.66-.7-1.2-2.8-1.75-5.04-1.65zm0-5.23c7.2.13 14.56.47 15.14 7.78.12 4.2-2.56 15.66-8.88 19.25-9 5.23-22.99 3.71-26.38.21-3.6-3.9-2.17-15.65 5.55-22.77 4.3-3.87 8.7-4.63 14.57-4.47zm49.14-.25l-1.4 4.01c0 .46-.45.83-.77 1.2-.65.5-1.43.78-2.23.84h-7.34a5.24 5.24 0 00-3.07.62 2.83 2.83 0 00-1.47 1.65l-6.26 19.8c-.23.85-.42 1.08-.35 1.46.08.38.38.77 1.07.81h-8.96c-.8.06-1.58-.16-2.23-.62a1.2 1.2 0 01-.51-1.2l8.25-26.22c.38-1.1.21-1.33 0-1.74a.8.8 0 00-.73-.61h9.35c.58-.03 1.17.05 1.73.23 1.11.44 1.14 2.12.94 2.88l1.48-2.07a3.2 3.2 0 011.32-.81c.39-.13.79-.21 1.2-.23h9.98zm329.03.27c.38.01.75.11 1.07.3a.74.74 0 01.46.46.76.76 0 01-.07.65l-13.63 9.33h.63c.56.01 1.11.2 1.58.52 1.2.79 1.28 1.48 1.73 2.83l4.46 13.26c.14.6.37 1.16.66 1.7.38.51.68 1.04 1.26 1.04h-9.37a2.66 2.66 0 01-1.48-.53c-.38-.4-.65-.9-.79-1.45l-3.6-10.19a5.89 5.89 0 00-.99-1.7c-.14-.2-.76-1.08-1.57-1.14h-2.32l-3.82 12.63c-.17.43-.23.88-.2 1.33.08.45.3 1.05.94 1.05h-8.86a3.08 3.08 0 01-1.78-.53 1.85 1.85 0 01-.2-1.85l9.45-33.9c.1-.8 0-1.06-.2-1.36a1.35 1.35 0 00-1.2-.57h9.5c.7-.01 1.37.22 1.92.66a1.66 1.66 0 01.64 1.43l-4.66 15.89 9.76-7.31c.77-.68 1.1-.71 1.1-1.32a1.55 1.55 0 00-1.41-1.2h11.08l-.09-.03zm-161.54-.34l-1.08 4.54a1.64 1.64 0 01-1.02.89c-.61.3-1.3.43-1.98.38h-8.3c-2.5.24-5.9-.3-6.57 2-.43 1.47-.61 2.57 2.93 3.37 3.32.62 9.17 1.1 12.13 3.71 2.52 2.25.64 10.8-3.51 13.27a15.18 15.18 0 01-8.24 2.22H332.8a2.61 2.61 0 01-1.71-.7 1.57 1.57 0 01-.13-1.4l1.2-4.8h.04c.03.07.07.15.13.21.4.8 3 .64 5.16.64 5.69.1 10.3.21 13.1-.54 2.23-.61 3.07-1.56 3.38-3.07.96-4.66-16.57-1.95-16.15-8.95a11.63 11.63 0 014.3-9.12c1.7-1.5 3.6-2.75 7.95-2.69h17.75l.04.04zM11.57 2.47c.48 1.08.53 2.3.13 3.4C10.64 9.47 2.96 33.44 2.46 35c-.07.49-.34 3.07 2.91 3.07h17.21l11-35.6h-22zm-3.42.1C6.81 2.02 7.11.19 8.86.1L35.25.02a1.13 1.13 0 011.2 1.56L24.62 39.62a1.53 1.53 0 01-1.2.85H5.37c-3.6 0-5.91-2.63-5.26-5.99C.1 34.34 8.3 8.94 9.4 5.2a1.9 1.9 0 00-1.26-2.62z" /><path fill-rule="evenodd" clip-rule="evenodd" d="M438.43 44.73l2.63-8.16h-7.97a5.28 5.28 0 00-3.6.94c-1.08 1-3.7 5.37-1.92 6.7.42.35.94.55 1.48.57h9.42l-.04-.05zm-1.51 5.36c-.47.38-.96.74-1.47 1.05-.67.4-1.42.64-2.2.71H422.8c-1.47.14-4.34-.6-5.42-2.31-2.63-4.2 1.65-14.24 4.59-16.88 1.34-1.38 4.6-1.6 7.4-1.6h11.43a7 7 0 002.18-.19c.96-.52.84-.55 1-1.48a1.42 1.42 0 00-.56-1.2 2.91 2.91 0 00-2.07-.55h-11.7a5.6 5.6 0 01-2.16-.52 1.54 1.54 0 01-.83-1.38l.7-4.27h20.4c2.3 0 3.96.19 5.37 1.28a4.05 4.05 0 011.55 4.89l-5.75 19.3a5.6 5.6 0 00-.34 3.93c.13.39.4.72.76.93h-10.57a2.7 2.7 0 01-1.47-.93 7 7 0 01-.43-.83l.05.05z" /><path d="M27.24 44.87c-.14.39-4.17 12.53 9.91 12.59h7.02l13.4-42.77s1.83-4.53-.75-7.76a11.62 11.62 0 00-8.07-4.46h-8.59l-12.92 42.4zm-2.3-.72L38.39.07s8.49-.07 10.45 0a13.98 13.98 0 019.93 5.36 10.42 10.42 0 011.2 10.08L46.03 59.85h-8.85c-10.39-.04-15.1-6.88-12.24-15.7zm306.69-21.64c2.05 1.32 2.4 3.25 1.53 5.55L326.4 49.2c-.06.54-.02 1.07.1 1.6.1.34.24.92.72 1.05h-9.89c-.5-.04-.98-.26-1.34-.62a1.6 1.6 0 01-.13-1.36l6.2-19.67a3.28 3.28 0 00-.52-1.95c-.56-.7-4.57-.97-6.9-.44l-.82.25a2.26 2.26 0 00-1.65 1.76l-6.78 20.05a1.67 1.67 0 00.31 1.36 1.13 1.13 0 00.89.62h-9.81c-.62 0-1.24-.13-1.8-.38a1.31 1.31 0 01-.76-1.53l8.55-26.11a1.97 1.97 0 00-.32-1.57 3.6 3.6 0 00-1.2-.88h9.9c.57.04 1.11.2 1.6.47a2.1 2.1 0 011.14 1.58l-.26 1.8 2.04-2.4c.4-.45.9-.8 1.47-1.03.69-.3 1.42-.46 2.17-.47h7.79a8.8 8.8 0 014.53 1.13v.04zm-72.35-1.2h10.79c.49.06.97.2 1.4.43.5.24.93.63 1.2 1.12l4.8 15.18 12.06-14.74a.94.94 0 000-1.38c-.2-.26-.38-.53-1.28-.53H296c1.65 0 2.02-.12 2.55.35a1.12 1.12 0 010 1.56l-27.5 33.44a2.15 2.15 0 00-.47 1.64 1.1 1.1 0 001.12 1.1h-8.84a3 3 0 01-2.1-.68 1.27 1.27 0 01-.12-1.2l9.5-11.62L263.46 28c-.18-.48-.17-.61-.54-.65h-10.15l-7.57 21.86a4.14 4.14 0 00-.2 1.58.97.97 0 00.95.9h-8.9a2.99 2.99 0 01-2.12-.72 2.46 2.46 0 01-.14-1.76l7.66-21.87h-4.47l1.98-6h2.62c.4 0 .8-.06 1.2-.16a.9.9 0 00.67-.69c1.27-4.13 1.1-4.68 3.7-6.12 1.2-.62 1.42-.52 3.27-.6h16.79l-.51 3.24c-.14.37-.4.67-.76.85-.49.34-1.07.52-1.67.51h-9.5l-1.03 2.98h4.5" /><path fill-rule="evenodd" clip-rule="evenodd" d="M216.99 44.03l5.22-15.91h-5.62c-2.61.21-5.43-1.1-8.4 4.1-1.2 2.4-4.53 7.62-3.59 10.08 1.6 3.88 7.78 2.65 11.74 1.99.23-.05.45-.14.66-.26h-.01zm-1.79 5.77a5.85 5.85 0 01-2.5 1.6 16.4 16.4 0 01-4.08.3h-6.32c-1.5-.04-2.99-.32-4.4-.82-3.13-1.2-3.9-3.94-3.9-6.6-.06-5.05 4.66-18.54 12.45-21.74a19 19 0 016.45-.67H224l2.4-6.1c.06-.36-.03-.74-.22-1.05-.2-.3-.37-.66-.87-.66h9.04c.58 0 1.14.2 1.6.55a1.89 1.89 0 01.8 1.57L225.46 48.9c-.13.47-.17.96-.13 1.44a1.29 1.29 0 00.85 1.35h-7.5a6.73 6.73 0 01-3.12-.42 1.48 1.48 0 01-.38-1.47h.01z" /><path d="M492.2 22.5c2.04 1.33 2.39 3.26 1.53 5.56L486.9 49.2c-.05.54-.02 1.08.11 1.6.09.34.23.92.7 1.05h-9.87c-.51-.04-.99-.26-1.35-.62a1.6 1.6 0 01-.13-1.36l6.2-19.66a3.27 3.27 0 00-.51-1.96c-.57-.7-4.58-.97-6.91-.44l-.82.25a2.26 2.26 0 00-1.65 1.76l-6.78 20.05a1.66 1.66 0 00.31 1.36 1.13 1.13 0 00.9.62h-9.82c-.62 0-1.23-.13-1.8-.38a1.32 1.32 0 01-.75-1.52l8.55-26.12a1.98 1.98 0 00-.33-1.57 3.6 3.6 0 00-1.2-.88h9.91c.56.04 1.1.2 1.6.47a2.1 2.1 0 011.13 1.58l-.21 1.8 2.04-2.4c.4-.45.91-.8 1.47-1.03.69-.3 1.43-.46 2.17-.46h7.79a8.81 8.81 0 014.53 1.12" /><path fill-rule="evenodd" clip-rule="evenodd" d="M389.07 34.15h9.4a4.1 4.1 0 012.95 1 2.6 2.6 0 01.7 2c-.17.9-.38 1.78-.63 2.65a26.73 26.73 0 01-1.2 3.6 4.1 4.1 0 01-2.3 1.56c-.89.3-1.81.48-2.75.5h-9.79l3.6-11.25.02-.06zm1.9-5.64l2.88-8.8h8.68c2.5 0 3.13.7 3.46 1.08 1.2.95 0 5.8-2.62 7.12-1.2.61-1.79.61-3.76.61h-8.64zm-9.7-14.5h26.2c5.09 0 6.05.13 7.52 1.2 2.49 1.56 3.08 3.68 2.3 6.5-.45 1.6-.3 1.29-.68 2.55a63.2 63.2 0 01-1.11 3.25 4.43 4.43 0 01-2.81 2.79c-1.3.37-2.11.47-3.6.85 1.5.22 2.93.74 4.21 1.55 1.2 1 1.85 1.48 1.02 4.48a34.37 34.37 0 01-1.4 4.35c-.27.75-.6 1.74-1.72 4.8a6 6 0 01-2.94 3.73c-2.49 1.56-4.72 1.68-9 1.68h-24.98c-.69 0-1.35-.24-1.86-.7a1.8 1.8 0 010-1.59l11.35-33.43a1.45 1.45 0 00-.13-1.2c-.36-.5-.36-.74-2.35-.87l-.02.06z" /><path d="M50.75 57.6l12.16-.06c.66 0 1.31-.06 1.96-.19 3.79-.67 7.66-2.47 8.77-6.44l5.51-17.69c.08-.22.14-.44.2-.67 1.3-5.51-2.96-10.05-8.57-10.16-3-.06-6-.1-9-.12L50.76 57.6zM47.5 60l12.47-40.15s6.2 0 10.8.14c7.41.15 13.1 6.9 10.6 13.98l-5.4 17.57c-.08.24-.16.48-.26.72-1.9 4.93-7.66 7.8-12.8 7.67L47.5 60z" /></svg>