<svg xmlns="http://www.w3.org/2000/svg" viewBox="0 0 250 40"><path d="M61.4 20.48c.87.58 1.95.81 3.42.81 2.09 0 3.8-1.2 3.8-3.6 0-2.2-1.5-3.37-4.5-5.12-2.86-1.65-4.88-3.31-4.88-6.06 0-3.34 2.9-5.38 6.59-5.38 2.09 0 3.49.36 4.85.49a39.13 39.13 0 00-.59 4.18c-.07.1-.52.1-.59.03-.17-2.17-.56-2.95-1.43-3.44a5.28 5.28 0 00-2.69-.58c-2.44 0-3.77 1.59-3.8 3.47-.03 1.75.94 2.89 2.3 3.83 1.33.91 2.79 1.59 3.91 2.27 1.71 1.07 3.45 2.46 3.45 4.86 0 3.24-2.79 5.84-7.4 5.84-1.95 0-3.98-.52-4.67-.97-.35-.45-.73-3.5-.8-4.47.07-.13.49-.19.59-.13.59 2.06 1.29 3.26 2.44 3.97zM74.54 5.25c.66 0 1.69.08 3.24.08h5.47c1.06 0 2.46-.03 3.01-.11.03.03.09.05.09.08-.26.87-.43 2.56-.52 3.57-.09.05-.4.08-.49.03a5.83 5.83 0 00-.32-1.74c-.2-.6-.43-.98-1.49-1.03-.72-.05-3.81-.08-4.27 0-.2.03-.29.24-.29.38-.06 1.17-.09 5.69-.06 6.29 0 .11.06.22.11.22.72.05 3.61.03 4.44-.03.86-.05 1.06-.46 1.23-.95.11-.3.2-.63.26-.95.09-.05.46-.05.52 0-.09.49-.2 1.55-.2 2.45 0 1.06.06 1.74.06 2.26-.09.11-.43.11-.49.03-.09-.49-.11-.63-.2-.95-.09-.33-.23-.87-1.15-.95a93.9 93.9 0 00-4.44-.03c-.09 0-.14.19-.14.22-.03.73 0 4.41.06 6.02.03.63.34.9.66.95.57.11 1.63.16 3.5.16 1.78 0 2.09-.3 2.49-.68a7.95 7.95 0 001.58-2.53c.06-.03.34.11.4.19-.11.76-.83 2.91-1.15 3.51-.17.27-.29.3-1.69.3-1.72 0-2.98-.08-6.96-.08-1.83 0-2.72.08-3.93.08-.06-.05-.06-.35 0-.44.75-.05 1.35-.08 1.83-.22.66-.16.89-.49.97-1.55a285.71 285.71 0 000-12.53c-.06-1.01-.17-1.25-.89-1.42a6.82 6.82 0 00-1.29-.22c-.07-.08-.04-.36.05-.41zM89.84 5.25c.54 0 1.92.08 2.92.08.63 0 1.03 0 1.29-.03.09.19.34.6 1.09 1.44 3.01 3.57 9.31 10.92 10.57 12.33l.09-.05c0-3.59.06-9.83-.11-11.6-.06-.79-.23-1.25-1.03-1.5-.49-.14-1.03-.19-1.72-.27-.06-.05-.03-.35.03-.41.74 0 1.98.08 3.32.08.86 0 2.32-.08 2.67-.08.06.05.06.35 0 .41-.52.08-.77.14-1.12.22-.74.22-.92.79-.95 1.47-.17 2.15-.14 7.54-.2 11.11 0 1.23.03 2.75.06 3.62-.32-.03-1.29-.03-1.66 0-1.38-1.96-10.17-12.3-11.43-13.83-.03-.03-.11 0-.11.03-.06 2.75-.03 9.83.03 11.3.06 1.31.46 1.63 1.12 1.8.43.11.97.16 1.52.22.09.05.06.41-.03.44-.54 0-1.81-.08-3.21-.08-1.43 0-2.35.08-2.92.08-.06-.05-.06-.38 0-.44.57-.05.89-.08 1.26-.19.63-.16 1.03-.46 1.12-1.8.09-1.28.2-6.26.26-11.9 0-.35-.23-.95-.66-1.31-.6-.54-1.2-.6-2.24-.74-.04-.05-.01-.35.04-.4zM125.78 21.17c-.71.19-3.27.98-5.44.98-5.84 0-9.06-2.85-9.06-8.67 0-3.38 1.73-6.13 4.53-7.4 1.44-.66 2.91-1 5.03-1 1.94 0 3.51.42 4.82.56-.18.71-.37 2.59-.42 3.86-.08.11-.37.13-.5.05-.16-1.96-.5-2.62-1.26-3.04-.86-.53-2.02-.77-3.59-.77-4.11 0-6.23 2.88-6.23 7.56 0 4.7 2.46 8.25 7.01 8.25.73 0 1.52-.13 1.86-.26.47-.18.65-.53.71-1.22.08-.82.13-2.17.05-3.04-.08-1-.24-1.3-1.05-1.43-.42-.08-.65-.08-1.28-.16-.08-.05-.08-.37 0-.42.94 0 2.15.08 3.32.08 1.26 0 1.86-.03 2.46-.08.05.08.05.37 0 .42a5.6 5.6 0 00-.84.21c-.5.13-.6.48-.63 1.48-.05.87-.1 2.33-.03 2.96.08.48.1.56.58.71.04.08.01.34-.04.37zM129.4 5.25c.66 0 1.69.08 3.24.08h5.47c1.06 0 2.46-.03 3.01-.11.03.03.09.05.09.08-.26.87-.43 2.56-.52 3.57-.09.05-.4.08-.49.03a5.83 5.83 0 00-.32-1.74c-.2-.6-.43-.98-1.49-1.03-.72-.05-3.81-.08-4.27 0-.2.03-.29.24-.29.38-.06 1.17-.09 5.69-.06 6.29 0 .11.06.22.11.22.72.05 3.61.03 4.44-.03.86-.05 1.06-.46 1.23-.95.11-.3.2-.63.26-.95.09-.05.46-.05.52 0-.09.49-.2 1.55-.2 2.45 0 1.06.06 1.74.06 2.26-.09.11-.43.11-.49.03-.09-.49-.11-.63-.2-.95-.09-.33-.23-.87-1.15-.95a93.9 93.9 0 00-4.44-.03c-.09 0-.14.19-.14.22-.03.73 0 4.41.06 6.02.03.63.34.9.66.95.57.11 1.63.16 3.5.16 1.78 0 2.09-.3 2.49-.68a7.95 7.95 0 001.58-2.53c.06-.03.34.11.4.19-.11.76-.83 2.91-1.15 3.51-.17.27-.29.3-1.69.3-1.72 0-2.98-.08-6.96-.08-1.83 0-2.72.08-3.93.08-.06-.05-.06-.35 0-.44.75-.05 1.35-.08 1.83-.22.66-.16.89-.49.97-1.55a285.71 285.71 0 000-12.53c-.06-1.01-.17-1.25-.89-1.42a6.82 6.82 0 00-1.29-.22c-.07-.08-.04-.36.05-.41zM154.93 22.02c-.89 0-2.44-.08-3.55-.08-1.83 0-3.24.08-4.07.08-.09-.11-.09-.35 0-.41.83-.08 1.46-.16 1.83-.24.83-.14.95-.68 1-1.93.06-1.2.09-8.79.09-13.15 0-.08-.11-.19-.17-.19-.54-.03-2.57-.03-3.18.03-.52.03-.86.27-1.15.71a13 13 0 00-1.06 2.37c-.06.05-.43 0-.49-.08.23-1.12.46-3.08.52-4.14 0 0 .09-.08.14-.05.54.24 1.52.41 2.24.41h8.93c1.03 0 1.63-.05 2.52-.33.03 0 .11.03.11.05a23.9 23.9 0 00-.57 4.08c-.03.08-.49.08-.52 0a8.58 8.58 0 00-.43-2.21c-.23-.52-.54-.73-1.12-.79-1.06-.05-2.8-.05-3.41-.03-.09.03-.14.16-.14.24 0 3.87.06 11.73.11 13.15.09 1.52.4 1.71 1 1.88.43.11.72.14 1.4.22.09.06.06.38-.03.41zM160.93 5.25c.66 0 2.03.08 3.47.08 1.49 0 2.38-.08 3.01-.08.06.08.09.33.03.41-.46.08-.95.14-1.2.19-.63.19-.72.54-.77 1.47a267.26 267.26 0 00-.03 12.55c.06.79.11 1.31.89 1.5.37.11.89.16 1.4.22.09.08.03.38-.03.44-.8 0-1.81-.08-3.09-.08-1.66 0-2.24.08-3.64.08-.09-.08-.06-.35 0-.44.43-.03.95-.11 1.26-.19.72-.14.83-.52.89-1.25.06-.79.09-4.9.09-7.38 0-2.21 0-4.27-.06-5.53-.09-.63-.09-1.17-.72-1.33-.32-.08-.8-.16-1.49-.24-.1-.07-.07-.37-.01-.42zM176.67 20.55c.77.5 2.34.7 4.08.7 1.71 0 3.63-.4 5.13-1.82 1.64-1.59 2.69-3.74 2.69-7.52 0-3.31-1.12-6.23-3.87-8.09-1.57-1.03-3.73-1.43-6.49-1.43a8.2 8.2 0 00-1.85.17c-.14.1-.35.23-.38.7-.07.96-.07 5.47-.07 8.38 0 3.08 0 6.66.07 7.72.02.42.2.89.69 1.19zm-6.25-18.93c.84.03 3.1.1 4.01.1 2.3 0 3.84-.13 6.56-.13 3 0 5.55.73 7.4 2.25 2.23 1.86 3.24 4.51 3.24 7.52a9.88 9.88 0 01-4.6 8.68c-2.23 1.46-4.74 2.12-7.85 2.12-2.09 0-3.45-.1-6.56-.13-.35 0-1.81-.03-2.51 0-.1-.03-.1-.5 0-.53.73-.07 1.4-.13 1.92-.3.56-.17.98-.36 1.08-1.62.1-2.02.1-5.04.1-8.35 0-2.05 0-5.8-.07-7.03-.07-1.23-.21-1.56-1.05-1.79a9.64 9.64 0 00-1.74-.3c-.03-.06 0-.45.07-.49zM81.62 33.58a1.52 1.52 0 00-1.31-.77c-.69 0-1.29.51-1.29 1.47 0 .94.6 1.48 1.29 1.48.55 0 1.05-.31 1.31-.77v-1.41zm.59 2.57c-.37 0-.57-.2-.6-.6-.38.48-.89.66-1.42.66-.95 0-1.72-.83-1.72-1.93 0-1.11.77-1.92 1.72-1.92.53 0 1.04.18 1.42.64v-3.2l.53-.09v5.76c0 .22.07.31.23.31.09 0 .17-.02.23-.05V36c-.07.1-.21.15-.39.15zM85.79 34.26c-1.15.1-1.87.5-1.87 1 0 .37.29.48.61.48.22 0 .73-.17 1.26-.65v-.83zm.61 1.89c-.38 0-.59-.18-.61-.66-.57.52-1.07.68-1.48.68a.86.86 0 01-.89-.88c0-.86 1.1-1.31 2.37-1.43v-.26c0-.57-.22-.8-.82-.8a3 3 0 00-1.3.44v-.49c.31-.18.95-.4 1.38-.4.76 0 1.27.28 1.27 1.25v1.87c0 .22.07.31.23.31.09 0 .18-.02.23-.05V36c-.08.1-.22.15-.38.15zM90.54 36.07V33.9c0-.77-.36-1.06-.89-1.06-.56 0-1.32.47-1.32 1.1v2.13h-.53v-3.56l.44-.09.06.72c.26-.41.85-.79 1.46-.79.97 0 1.32.67 1.32 1.51v2.2h-.54v.01zM93.41 36.21a2.5 2.5 0 01-1.28-.37l.1-.44c.27.16.7.36 1.2.36.48 0 .82-.19.82-.64 0-.34-.27-.49-.91-.66-.73-.19-1.08-.6-1.08-1.06 0-.57.41-1.04 1.26-1.04.49 0 .93.22 1.06.28l-.1.43a2.05 2.05 0 00-.95-.27c-.53 0-.76.22-.76.55 0 .34.26.49.78.63.8.19 1.23.58 1.23 1.07-.02.72-.56 1.16-1.37 1.16zM98.18 36.07l-1.49-1.66-.29.27v1.39h-.53v-6.3l.53-.09v4.42l1.77-1.6h.65l-1.76 1.58 1.78 1.99h-.66zM104.44 33.58a1.52 1.52 0 00-1.31-.77c-.69 0-1.29.51-1.29 1.47 0 .94.6 1.48 1.29 1.48.55 0 1.05-.31 1.31-.77v-1.41zm.6 2.57c-.37 0-.57-.2-.6-.6-.38.48-.89.66-1.42.66-.95 0-1.72-.83-1.72-1.93 0-1.11.77-1.92 1.72-1.92.53 0 1.04.18 1.42.64v-3.2l.53-.09v5.76c0 .22.07.31.23.31.09 0 .17-.02.23-.05V36c-.07.1-.21.15-.39.15zM107.97 32.79c-.52 0-1.02.3-1.15.95h2.13c.04-.54-.34-.95-.98-.95zm.06 3.41c-1.05 0-1.79-.84-1.79-1.95 0-1.16.84-1.89 1.72-1.89.87 0 1.51.59 1.51 1.39 0 .12-.02.25-.04.38h-2.64c-.06.74.28 1.62 1.47 1.62.38 0 .8-.18 1.08-.39l.18.33c-.35.3-.88.51-1.49.51zM111.65 36.21a2.5 2.5 0 01-1.28-.37l.1-.44c.27.16.7.36 1.2.36.48 0 .82-.19.82-.64 0-.34-.27-.49-.91-.66-.73-.19-1.08-.6-1.08-1.06 0-.57.41-1.04 1.26-1.04.49 0 .93.22 1.06.28l-.1.43a2.05 2.05 0 00-.95-.27c-.53 0-.75.22-.75.55 0 .34.26.49.78.63.8.19 1.23.58 1.23 1.07-.03.72-.58 1.16-1.38 1.16zM114.1 36.07V32.5l.54-.09v3.67h-.54v-.01zm.63-5.08c0 .2-.17.37-.37.37a.38.38 0 01-.37-.37c0-.2.17-.37.37-.37.2 0 .37.17.37.37zM117.25 32.76c-.6 0-1 .46-1 1.06 0 .59.4 1.05 1 1.05.61 0 1.01-.46 1.01-1.05-.01-.6-.41-1.06-1.01-1.06zm1.01-.26h.83v.41h-.68c.21.22.36.57.36.91 0 .73-.6 1.37-1.35 1.44-.86.08-1.08.26-1.08.55 0 .25.25.4.96.46 1.28.12 1.79.59 1.79 1.24 0 .8-.78 1.37-1.8 1.37-1.08 0-1.79-.46-1.79-1.1 0-.45.38-.8.73-.87l.22.12a.71.71 0 00-.47.68c0 .5.64.73 1.31.73.81 0 1.28-.35 1.28-.86s-.44-.71-1.39-.82c-.73-.07-1.32-.28-1.32-.92 0-.26.22-.59.69-.73a1.45 1.45 0 01-.81-1.28c0-.8.68-1.46 1.51-1.46.41-.01.66.13 1.01.13zM122.85 36.07V33.9c0-.77-.36-1.06-.89-1.06-.56 0-1.32.47-1.32 1.1v2.13h-.53v-3.56l.44-.09.06.72c.26-.41.85-.79 1.46-.79.97 0 1.32.67 1.32 1.51v2.2h-.54v.01zM128.24 32.81c-.83 0-1.43.61-1.43 1.47 0 .87.6 1.48 1.43 1.48.84 0 1.44-.61 1.44-1.48-.01-.86-.61-1.47-1.44-1.47zm0 3.41a1.94 1.94 0 110-3.87 1.94 1.94 0 110 3.87zM132.57 32.76c-.6 0-1 .46-1 1.06 0 .59.4 1.05 1 1.05.61 0 1.01-.46 1.01-1.05-.01-.6-.41-1.06-1.01-1.06zm1.01-.26h.83v.41h-.68c.21.22.36.57.36.91 0 .73-.6 1.37-1.35 1.44-.86.08-1.08.26-1.08.55 0 .25.25.4.96.46 1.28.12 1.79.59 1.79 1.24 0 .8-.78 1.37-1.8 1.37-1.08 0-1.79-.46-1.79-1.1 0-.45.38-.8.73-.87l.22.12a.71.71 0 00-.47.68c0 .5.64.73 1.31.73.81 0 1.28-.35 1.28-.86s-.44-.71-1.4-.82c-.73-.07-1.32-.28-1.32-.92 0-.26.22-.59.69-.73a1.45 1.45 0 01-.81-1.28c0-.8.68-1.46 1.51-1.46.42-.01.67.13 1.02.13zM139.98 36.07V33.9c0-.77-.36-1.06-.89-1.06-.56 0-1.32.47-1.32 1.1v2.13h-.53v-6.3l.53-.09v3.44c.26-.4.84-.75 1.43-.75.97 0 1.32.67 1.32 1.51v2.2h-.54v-.01zM142.55 30.83c0 .35.28.62.63.62s.63-.27.63-.62a.63.63 0 00-.63-.63.63.63 0 00-.63.63zm1.58 0c0 .52-.43.94-.95.94a.95.95 0 01-.95-.94c0-.52.43-.95.95-.95s.95.43.95.95zm-.22 3.43c-1.15.1-1.87.5-1.87 1 0 .37.29.48.61.48.22 0 .73-.17 1.26-.65v-.83zm.61 1.89c-.38 0-.59-.18-.61-.66-.57.52-1.07.68-1.48.68a.86.86 0 01-.89-.88c0-.86 1.1-1.31 2.37-1.43v-.26c0-.57-.22-.8-.82-.8a3 3 0 00-1.3.44v-.49c.31-.18.95-.4 1.38-.4.76 0 1.27.28 1.27 1.25v1.87c0 .22.07.31.23.31.09 0 .18-.02.23-.05V36c-.07.1-.21.15-.38.15zM148.66 36.07V33.9c0-.77-.36-1.06-.89-1.06-.56 0-1.32.47-1.32 1.1v2.13h-.54v-3.56l.44-.09.06.72c.26-.41.85-.79 1.46-.79.97 0 1.32.67 1.32 1.51v2.2h-.53v.01zM153.46 33.58a1.52 1.52 0 00-1.31-.77c-.69 0-1.29.51-1.29 1.47 0 .94.6 1.48 1.29 1.48.55 0 1.05-.31 1.31-.77v-1.41zm.59 2.57c-.37 0-.57-.2-.6-.6-.38.48-.89.66-1.42.66-.95 0-1.72-.83-1.72-1.93 0-1.11.77-1.92 1.72-1.92.54 0 1.04.18 1.42.64v-3.2l.53-.09v5.76c0 .22.07.31.23.31.09 0 .17-.02.23-.05V36c-.07.1-.21.15-.39.15zM156.9 36.11h-.4l-1.56-3.61h.56l1.22 2.91 1.2-2.91h.54l-1.56 3.61zM163.08 32.79c-.52 0-1.02.3-1.15.95h2.13c.05-.54-.34-.95-.98-.95zm-3.6 2.49c0 .37.29.48.61.48.4 0 .99-.36 1.38-.77a2.35 2.35 0 01-.13-.71c-1.14.11-1.86.5-1.86 1zm3.59-2.92c.87 0 1.51.59 1.51 1.39 0 .12-.02.25-.04.38h-2.64c-.06.74.28 1.62 1.47 1.62.38 0 .8-.18 1.08-.39l.18.33c-.34.3-.87.51-1.48.51-.66 0-1.21-.34-1.52-.87-.65.64-1.16.86-1.7.86-.56 0-.94-.36-.94-.89 0-.86 1.1-1.3 2.37-1.42v-.27c0-.57-.22-.8-.82-.8a3 3 0 00-1.3.44v-.49c.31-.18.95-.4 1.38-.4.56 0 .98.16 1.16.62.33-.4.8-.62 1.29-.62zM166.29 33.94v2.13h-.53v-3.56l.44-.09.06.72c.26-.41.83-.79 1.4-.79v.59c-.67-.1-1.37.38-1.37 1zM170.91 36.07l-1.48-1.66-.3.27v1.39h-.53v-6.3l.53-.09v4.42l1.77-1.6h.65l-1.76 1.58 1.79 1.99h-.67z"/></svg>