<svg viewBox="0 0 90 30" fill="none" xmlns="http://www.w3.org/2000/svg"><path d="M.83 28v.25h3.35V17.04H18.3v11.21h3.35V2.59H18.3v11.18H4.18V2.59H.83V28zm27.1.48l-.22.38h3.39l.07-.13.47-.8c1.11.42 2.3.62 3.57.62a9.6 9.6 0 005.15-1.33h0a9.13 9.13 0 003.36-3.67 10.99 10.99 0 001.17-5.05c0-1.63-.31-3.13-.94-4.5a8.97 8.97 0 00-2.41-3.3l1.45-2.53.22-.37H39.82l-.08.13-.69 1.21c-1.19-.46-2.47-.7-3.84-.7-1.96 0-3.68.46-5.14 1.37a8.87 8.87 0 00-3.36 3.64c-.78 1.5-1.17 3.19-1.17 5.05 0 1.65.3 3.2.93 4.62h0a9.05 9.05 0 002.6 3.39l-1.14 1.97zm10.72-3.96h0c-.92.63-2.06.95-3.44.95a6.9 6.9 0 01-1.98-.27l6.66-11.63c.5.6.89 1.3 1.17 2.09h0c.32.88.48 1.83.48 2.84a8.2 8.2 0 01-.74 3.5 6.01 6.01 0 01-2.15 2.52zM48.17 28v.25h3.35V22.1l3.28-3.25 6.48 9.3.08.1H65.47l-.28-.4-8.09-11.34 7.49-7.33.44-.43h-4.71l-.08.08-8.72 8.98V1.15h-3.35V28zm21.16-.35h0c1.26.6 2.78.9 4.56.9 2.38 0 4.31-.48 5.76-1.48h0a5.12 5.12 0 002.24-4.47c0-1.23-.32-2.23-.98-2.97a6.13 6.13 0 00-2.45-1.7c-.98-.39-2.02-.69-3.12-.9-1.06-.22-2.07-.45-3.03-.67a7.6 7.6 0 01-2.28-.96c-.53-.35-.8-.86-.8-1.54a2 2 0 011.01-1.83c.7-.43 1.78-.65 3.27-.65 1.57 0 2.64.29 3.25.81h0a2.91 2.91 0 011.13 1.93l.03.22H81.31l-.03-.28a5.95 5.95 0 00-3.52-4.8 9.18 9.18 0 00-4.18-.81c-2.48 0-4.4.48-5.73 1.49a4.95 4.95 0 00-1.97 4.19c0 1.2.32 2.2.98 2.94h0a6.53 6.53 0 002.45 1.62h0c.98.37 2 .66 3.08.89h0c1.09.23 2.1.47 3.07.72h0c.94.22 1.7.54 2.27.95.54.38.8.91.8 1.62 0 .58-.15 1.04-.46 1.4-.33.37-.74.65-1.23.84h0c-.5.2-1 .33-1.54.4-.55.08-1.01.11-1.38.11-1.19 0-2.14-.17-2.85-.5a4 4 0 01-1.6-1.36 4.56 4.56 0 01-.62-1.76l-.02-.22h-3.46l.02.27a6.63 6.63 0 001.1 3.24h0a7.07 7.07 0 002.84 2.36zM84.6 28v.25h4.18v-4.38H84.6V28zm-55.2-6.51a8.58 8.58 0 01-.51-2.99c0-1.28.25-2.45.73-3.5a6.02 6.02 0 012.16-2.52 6.04 6.04 0 013.43-.95c.8 0 1.56.12 2.26.37l-6.75 11.73a7 7 0 01-1.32-2.14z" stroke-width=".5"/></svg>